<svg xmlns="http://www.w3.org/2000/svg" viewBox="0 0 3746 424" fill="none">
  <path d="M49.5 1V423" stroke="currentColor" fill="none"/>
      <path d="M1 212L97 1V423L25.5 212.5" stroke="currentColor" fill="none"/>
      <path d="M49 212L145 1V423L73.5 212.5" stroke="currentColor" fill="none"/>
      <path d="M97 212L193 1V423L121.5 212.5" stroke="currentColor" fill="none"/>
      <path d="M145 212L241 1V423L169.5 212.5" stroke="currentColor" fill="none"/>
      <path d="M193 212L289 1V423L217.5 212.5" stroke="currentColor" fill="none"/>
      <path d="M241 212L337 1V423L265.5 212.5" stroke="currentColor" fill="none"/>
      <path d="M289 212L385 1V423L313.5 212.5" stroke="currentColor" fill="none"/>
      <path d="M337 212L433 1V423L361.5 212.5" stroke="currentColor" fill="none"/>
      <path d="M385 212L481 1V423L409.5 212.5" stroke="currentColor" fill="none"/>
      <path d="M433 212L529 1V423L457.5 212.5" stroke="currentColor" fill="none"/>
      <path d="M481 212L577 1M577 423L505.5 212.5" stroke="currentColor" fill="none"/>
      <path d="M577.5 1V423" stroke="currentColor" fill="none"/>
      <path d="M529 212L625 1V423L553.5 212.5" stroke="currentColor" fill="none"/>
      <path d="M577 212L673 1V423L601.5 212.5" stroke="currentColor" fill="none"/>
      <path d="M625 212L721 1V423L649.5 212.5" stroke="currentColor" fill="none"/>
      <path d="M673 212L769 1V423L697.5 212.5" stroke="currentColor" fill="none"/>
      <path d="M721 212L817 1V423L745.5 212.5" stroke="currentColor" fill="none"/>
      <path d="M769 212L865 1V423L793.5 212.5" stroke="currentColor" fill="none"/>
      <path d="M817 212L913 1V423L841.5 212.5" stroke="currentColor" fill="none"/>
      <path d="M865 212L961 1V423L889.5 212.5" stroke="currentColor" fill="none"/>
      <path d="M913 212L1009 1V423L937.5 212.5" stroke="currentColor" fill="none"/>
      <path d="M961 212L1057 1V423L985.5 212.5" stroke="currentColor" fill="none"/>
      <path d="M1009 212L1105 1M1105 423L1033.5 212.5" stroke="currentColor" fill="none"/>
      <path d="M1105.5 1V423" stroke="currentColor" fill="none"/>
      <path d="M1057 212L1153 1V423L1081.5 212.5" stroke="currentColor" fill="none"/>
      <path d="M1105 212L1201 1V423L1129.5 212.5" stroke="currentColor" fill="none"/>
      <path d="M1153 212L1249 1V423L1177.5 212.5" stroke="currentColor" fill="none"/>
      <path d="M1201 212L1297 1V423L1225.5 212.5" stroke="currentColor" fill="none"/>
      <path d="M1249 212L1345 1V423L1273.5 212.5" stroke="currentColor" fill="none"/>
      <path d="M1297 212L1393 1V423L1321.5 212.5" stroke="currentColor" fill="none"/>
      <path d="M1345 212L1441 1V423L1369.5 212.5" stroke="currentColor" fill="none"/>
      <path d="M1393 212L1489 1V423L1417.5 212.5" stroke="currentColor" fill="none"/>
      <path d="M1441 212L1537 1V423L1465.5 212.5" stroke="currentColor" fill="none"/>
      <path d="M1489 212L1585 1V423L1513.5 212.5" stroke="currentColor" fill="none"/>
      <path d="M1537 212L1633 1M1633 423L1561.5 212.5" stroke="currentColor" fill="none"/>
      <path d="M1633.5 1V423" stroke="currentColor" fill="none"/>
      <path d="M1585 212L1681 1V423L1609.5 212.5" stroke="currentColor" fill="none"/>
      <path d="M1633 212L1729 1V423L1657.5 212.5" stroke="currentColor" fill="none"/>
      <path d="M1681 212L1777 1V423L1705.5 212.5" stroke="currentColor" fill="none"/>
      <path d="M1729 212L1825 1V423L1753.5 212.5" stroke="currentColor" fill="none"/>
      <path d="M1777 212L1873 1V423L1801.5 212.5" stroke="currentColor" fill="none"/>
      <path d="M1825 212L1921 1V423L1849.5 212.5" stroke="currentColor" fill="none"/>
      <path d="M1873 212L1969 1V423L1897.5 212.5" stroke="currentColor" fill="none"/>
      <path d="M1921 212L2017 1V423L1945.5 212.5" stroke="currentColor" fill="none"/>
      <path d="M1969 212L2065 1V423L1993.5 212.5" stroke="currentColor" fill="none"/>
      <path d="M2017 212L2113 1V423L2041.5 212.5" stroke="currentColor" fill="none"/>
      <path d="M2065 212L2161 1M2161 423L2089.5 212.5" stroke="currentColor" fill="none"/>
      <path d="M2161.5 1V423" stroke="currentColor" fill="none"/>
      <path d="M2113 212L2209 1V423L2137.5 212.5" stroke="currentColor" fill="none"/>
      <path d="M2161 212L2257 1V423L2185.5 212.5" stroke="currentColor" fill="none"/>
      <path d="M2209 212L2305 1V423L2233.5 212.5" stroke="currentColor" fill="none"/>
      <path d="M2257 212L2353 1V423L2281.5 212.5" stroke="currentColor" fill="none"/>
      <path d="M2305 212L2401 1V423L2329.5 212.5" stroke="currentColor" fill="none"/>
      <path d="M2353 212L2449 1V423L2377.5 212.5" stroke="currentColor" fill="none"/>
      <path d="M2401 212L2497 1V423L2425.5 212.5" stroke="currentColor" fill="none"/>
      <path d="M2449 212L2545 1V423L2473.5 212.5" stroke="currentColor" fill="none"/>
      <path d="M2497 212L2593 1V423L2521.5 212.5" stroke="currentColor" fill="none"/>
      <path d="M2545 212L2641 1V423L2569.5 212.5" stroke="currentColor" fill="none"/>
      <path d="M2593 212L2689 1M2689 423L2617.5 212.5" stroke="currentColor" fill="none"/>
      <path d="M2689.5 1V423" stroke="currentColor" fill="none"/>
      <path d="M2641 212L2737 1V423L2665.5 212.5" stroke="currentColor" fill="none"/>
      <path d="M2689 212L2785 1V423L2713.5 212.5" stroke="currentColor" fill="none"/>
      <path d="M2737 212L2833 1V423L2761.5 212.5" stroke="currentColor" fill="none"/>
      <path d="M2785 212L2881 1V423L2809.5 212.5" stroke="currentColor" fill="none"/>
      <path d="M2833 212L2929 1V423L2857.5 212.5" stroke="currentColor" fill="none"/>
      <path d="M2881 212L2977 1V423L2905.5 212.5" stroke="currentColor" fill="none"/>
      <path d="M2929 212L3025 1V423L2953.5 212.5" stroke="currentColor" fill="none"/>
      <path d="M2977 212L3073 1V423L3001.5 212.5" stroke="currentColor" fill="none"/>
      <path d="M3025 212L3121 1V423L3049.5 212.5" stroke="currentColor" fill="none"/>
      <path d="M3073 212L3169 1V423L3097.5 212.5" stroke="currentColor" fill="none"/>
      <path d="M3121 212L3217 1M3217 423L3145.5 212.5" stroke="currentColor" fill="none"/>
      <path d="M3217.5 1V423" stroke="currentColor" fill="none"/>
      <path d="M3169 212L3265 1V423L3193.5 212.5" stroke="currentColor" fill="none"/>
      <path d="M3217 212L3313 1V423L3241.5 212.5" stroke="currentColor" fill="none"/>
      <path d="M3265 212L3361 1V423L3289.5 212.5" stroke="currentColor" fill="none"/>
      <path d="M3313 212L3409 1V423L3337.5 212.5" stroke="currentColor" fill="none"/>
      <path d="M3361 212L3457 1V423L3385.5 212.5" stroke="currentColor" fill="none"/>
      <path d="M3409 212L3505 1V423L3433.5 212.5" stroke="currentColor" fill="none"/>
      <path d="M3457 212L3553 1V423L3481.5 212.5" stroke="currentColor" fill="none"/>
      <path d="M3505 212L3601 1V423L3529.5 212.5" stroke="currentColor" fill="none"/>
      <path d="M3553 212L3649 1V423L3577.5 212.5" stroke="currentColor" fill="none"/>
      <path d="M3601 212L3697 1V423L3625.5 212.5" stroke="currentColor" fill="none"/>
      <path d="M3649 212L3745 1M3745 423L3673.5 212.5" stroke="currentColor" fill="none"/>
</svg>
