<svg xmlns="http://www.w3.org/2000/svg" width="176" height="160" fill="none" viewBox="0 0 176 160">
  <path fill="#9A9A9A" fill-opacity=".1" d="M174.827 55.45c-2.904-12.62-8.76-24.368-16.749-33.05-10.157-11.039-22.947-16.349-35.84-16.337-14.774.015-26.1 10.61-41.504 6.909-4.85-1.165-14.385-5.109-17.78-7.165C52.765-.37 40.31-2.856 24.982 4.603 8.87 12.444 3.525 28.004 6.512 42.937c.417 1.614.857 3.209 1.279 4.82 1.15 4.395 2.15 8.883 2.146 14.038-.006 9.28-3.44 17.442-6.693 25.696 0 0 0 .006-.004.008-.861 2.182-1.709 4.374-2.48 6.593-3.866 16.614 6.59 39.87 41.048 45.759 43.494 7.434 88.548 3.932 120.101-35.104 4.554-5.634 7.58-11.768 9.695-17.347 3.982-9.735 5.751-20.938 3.217-31.952h.004l.002.002Z"/>
  <path fill="#6D6D6D" d="M130 76a3.5 3.5 0 0 1 3.5 3.5V139a3.5 3.5 0 1 1 0 7h-91a3.5 3.5 0 1 1 0-7v-21a3.5 3.5 0 0 1 3.5-3.5h21a3.5 3.5 0 0 1 3.5 3.5v21H74v-35a3.5 3.5 0 0 1 3.5-3.5h21a3.5 3.5 0 0 1 3.5 3.5v35h3.5V79.5A3.5 3.5 0 0 1 109 76h21Zm-80.5 63h14v-17.5h-14V139Zm31.5 0h14v-31.5H81V139Zm31.5 0h14V83h-14v56Zm-5.25-84a8.734 8.734 0 0 1 8.75 8.75 8.734 8.734 0 0 1-8.75 8.75 8.84 8.84 0 0 1-1.759-.176L94.385 85.02A8.76 8.76 0 0 1 95 88.25 8.734 8.734 0 0 1 86.25 97a8.734 8.734 0 0 1-8.067-5.347L63.49 90.02a8.726 8.726 0 0 1-7.454 3.467l-6.999 12.249a3.5 3.5 0 0 1-6.077-3.472l6.808-11.914a8.72 8.72 0 0 1-2.019-5.6A8.734 8.734 0 0 1 56.5 76a8.73 8.73 0 0 1 8.603 7.155l13.18 1.465a8.732 8.732 0 0 1 7.967-5.12c1.112 0 2.174.207 3.151.583l10.344-11.822A8.729 8.729 0 0 1 98.5 63.75a8.734 8.734 0 0 1 8.75-8.75Zm-21 31.5c-.98 0-1.75.77-1.75 1.75S85.27 90 86.25 90 88 89.23 88 88.25s-.77-1.75-1.75-1.75ZM56.5 83c-.98 0-1.75.77-1.75 1.75s.77 1.75 1.75 1.75 1.75-.77 1.75-1.75S57.48 83 56.5 83Zm50.75-21c-.979 0-1.75.77-1.75 1.75s.771 1.75 1.75 1.75 1.75-.77 1.75-1.75-.771-1.75-1.75-1.75Z"/>
</svg>
