<svg width="192" height="176" viewBox="0 0 192 176" fill="none" xmlns="http://www.w3.org/2000/svg">
<path d="M190.72 60.598C187.553 46.8062 181.163 33.9675 172.449 24.4794C161.368 12.4158 147.415 6.61281 133.35 6.62551C117.233 6.64246 104.879 18.221 88.073 14.1758C82.7816 12.903 72.3803 8.59304 68.6767 6.34595C57.5617 -0.403781 43.9741 -3.12104 27.2531 5.03074C9.67477 13.5997 3.84489 30.6043 7.10295 46.9227C7.55903 48.6869 8.03835 50.43 8.49866 52.1899C9.75289 56.9933 10.8445 61.8983 10.8403 67.532C10.834 77.6724 7.08817 86.593 3.53872 95.6131C3.53872 95.6131 3.53872 95.6195 3.5345 95.6216C2.59487 98.0064 1.67003 100.402 0.829651 102.827C-3.38915 120.983 8.01723 146.398 45.6084 152.834C93.0562 160.959 142.206 157.132 176.628 114.471C181.596 108.314 184.896 101.611 187.204 95.5136C191.548 84.8754 193.477 72.6318 190.714 60.5958H190.718L190.72 60.598Z" fill="white" fill-opacity="0.05"/>
<path fill-rule="evenodd" clip-rule="evenodd" d="M143.812 107.577H38.5093V156.458C38.5093 158.79 40.0338 160.846 42.2614 161.518C52.8422 164.699 82.5955 173.653 89.6479 175.778C90.6361 176.074 91.6876 176.074 92.6758 175.778C99.7283 173.656 129.482 164.701 140.062 161.518C142.29 160.846 143.814 158.79 143.814 156.458V107.577H143.812Z" fill="#FF462D"/>
<path fill-rule="evenodd" clip-rule="evenodd" d="M143.812 107.577H91.1595C91.1595 107.577 90.6486 176 91.1595 176C91.6705 176 92.1794 175.926 92.6735 175.778C99.7259 173.656 129.479 164.701 140.06 161.518C142.288 160.846 143.812 158.79 143.812 156.458V107.577Z" fill="#C92312"/>
<path fill-rule="evenodd" clip-rule="evenodd" d="M91.1617 124.711L38.5091 107.577C38.5091 107.577 29.2776 121.307 25.1496 127.445C24.6871 128.133 24.5731 128.998 24.8413 129.781C25.1116 130.565 25.7302 131.175 26.5178 131.433C36.52 134.693 66.1255 144.34 73.8917 146.87C75.0044 147.235 76.227 146.815 76.8858 145.841C80.4162 140.616 91.1617 124.711 91.1617 124.711Z" fill="#FC7454"/>
<path fill-rule="evenodd" clip-rule="evenodd" d="M143.812 107.577L91.1597 124.711C91.1597 124.711 101.905 140.614 105.436 145.841C106.094 146.815 107.315 147.235 108.43 146.87C116.196 144.342 145.801 134.693 155.804 131.433C156.591 131.175 157.21 130.565 157.48 129.781C157.748 128.998 157.636 128.133 157.172 127.445C153.044 121.307 143.812 107.577 143.812 107.577Z" fill="#FC7454"/>
<path fill-rule="evenodd" clip-rule="evenodd" d="M78.4167 71.5834C77.7579 70.6134 76.5395 70.194 75.4268 70.5583C67.6648 73.085 38.0509 82.7362 28.0508 85.9978C27.2632 86.254 26.6424 86.864 26.3743 87.6476C26.1061 88.4312 26.218 89.2975 26.6826 89.9837C30.4833 95.6406 38.5112 107.575 38.5112 107.575L91.1638 90.3818C91.1638 90.3818 81.7085 76.4312 78.4188 71.5813L78.4167 71.5834Z" fill="#FF462D"/>
<path fill-rule="evenodd" clip-rule="evenodd" d="M155.641 89.9837C156.103 89.2975 156.217 88.4312 155.949 87.6476C155.681 86.864 155.06 86.254 154.273 85.9978C144.27 82.7362 114.657 73.085 106.897 70.5583C105.784 70.194 104.563 70.6134 103.907 71.5834C100.619 76.4334 91.1617 90.3839 91.1617 90.3839L143.814 107.577C143.814 107.577 151.84 95.6427 155.643 89.9858L155.641 89.9837Z" fill="#FC7454"/>
<path fill-rule="evenodd" clip-rule="evenodd" d="M143.812 107.577L91.1594 90.384L38.5068 107.577L91.1594 124.711L143.812 107.577Z" fill="#FF462D"/>
<path fill-rule="evenodd" clip-rule="evenodd" d="M91.1619 124.711V90.384L38.5093 107.577L91.1619 124.711Z" fill="#B72C25"/>
<path d="M35.2303 46.1814C36.3516 46.3699 37.6966 44.7772 38.235 42.6212C38.7735 40.4673 38.3026 38.5655 37.1814 38.377C36.0602 38.1885 34.7151 39.7811 34.1767 41.9371C33.6383 44.091 34.1091 45.9929 35.2303 46.1814Z" fill="#989898"/>
<path d="M35.8569 49.1515C38.2998 48.828 40.1485 47.5656 39.9862 46.3318C39.8238 45.0979 37.7118 44.3599 35.2689 44.6834C32.826 45.0068 30.9773 46.2693 31.1397 47.5031C31.3021 48.7369 33.414 49.4749 35.8569 49.1515Z" fill="#989898"/>
<path d="M35.2482 46.4461C36.3068 45.9899 36.4683 43.9936 35.6088 41.9871C34.7494 39.9807 33.1945 38.7239 32.1359 39.1801C31.0773 39.6363 30.9159 41.6327 31.7753 43.6391C32.6348 45.6456 34.1896 46.9023 35.2482 46.4461Z" fill="#CBCBCB"/>
<path d="M30.7774 47.0117C31.0371 47.3357 31.5988 47.3569 32.0295 47.0604C32.4602 46.7639 32.5975 46.2598 32.3378 45.9358C32.0781 45.6117 31.5164 45.5906 31.0857 45.8871C30.6549 46.1836 30.5177 46.6876 30.7774 47.0117Z" fill="#808080"/>
<path d="M38.5727 49.587C38.6023 49.568 38.6192 49.5341 38.6171 49.5002C38.6129 49.4472 38.5643 49.4091 38.5052 49.4134C37.1116 49.5447 34.3645 47.5369 34.1491 47.3463C34.109 47.3103 34.0414 47.3124 33.9992 47.3505C33.957 47.3908 33.957 47.4522 33.9992 47.4882C34.0245 47.5115 36.9173 49.7565 38.5178 49.6061C38.5389 49.6061 38.558 49.5976 38.5727 49.587Z" fill="#989898"/>
<path d="M37.1664 50.0001C37.196 49.981 37.2129 49.9472 37.2108 49.9133C37.2065 49.8603 37.158 49.8222 37.0989 49.8264C35.7074 49.9577 32.9582 47.95 32.7428 47.7594C32.7027 47.7234 32.633 47.7255 32.5929 47.7636C32.5507 47.8038 32.5507 47.8653 32.5929 47.9013C32.6182 47.9246 35.511 50.1695 37.1115 50.0192C37.1326 50.0192 37.1516 50.0107 37.1664 50.0001Z" fill="#989898"/>
<path d="M40.3233 49.1572C40.3571 49.1339 40.374 49.0958 40.3656 49.0576C40.3529 49.0047 40.298 48.975 40.241 48.9877C38.8748 49.3012 35.8153 47.6937 35.5724 47.537C35.526 47.5073 35.4584 47.5179 35.4225 47.5624C35.3866 47.6069 35.3972 47.6662 35.4436 47.6979C35.4732 47.717 38.7122 49.5384 40.2832 49.1783C40.298 49.1741 40.3107 49.1699 40.3233 49.1614V49.1572Z" fill="#989898"/>
<path d="M45.4862 44.8216C45.5157 44.8216 45.5474 44.8174 45.577 44.8089C45.5812 44.8089 45.9486 44.7009 46.6158 44.5378C46.8249 44.487 46.9621 44.2392 46.9199 43.985C46.8776 43.7309 46.6728 43.5678 46.4617 43.6187C45.7775 43.786 45.4101 43.8919 45.3954 43.8961C45.1863 43.9575 45.0596 44.2095 45.1082 44.4616C45.1504 44.6776 45.3109 44.8216 45.4862 44.8216Z" fill="#E8BA02"/>
<path d="M78.1006 106.891C78.0964 106.632 78.2674 106.419 78.4807 106.414C79.1901 106.4 79.9144 106.355 80.6281 106.281C80.8435 106.26 81.0293 106.45 81.0483 106.709C81.0673 106.967 80.9068 107.194 80.6935 107.215C79.963 107.289 79.2218 107.336 78.4955 107.35C78.4934 107.35 78.4912 107.35 78.4891 107.35C78.278 107.35 78.1048 107.145 78.1006 106.889V106.891ZM75.8519 107.278C75.1192 107.221 74.3801 107.132 73.658 107.014C73.4447 106.98 73.2969 106.743 73.3265 106.486C73.356 106.23 73.5503 106.05 73.7636 106.084C74.4688 106.198 75.1867 106.285 75.9025 106.34C76.1158 106.357 76.2784 106.58 76.2657 106.838C76.253 107.086 76.082 107.276 75.8793 107.276C75.8709 107.276 75.8624 107.276 75.854 107.276L75.8519 107.278ZM82.8705 106.436C82.8367 106.179 82.9803 105.938 83.1915 105.898C83.8925 105.76 84.6041 105.593 85.303 105.4C85.512 105.343 85.7189 105.499 85.7675 105.754C85.8161 106.006 85.6852 106.258 85.4761 106.315C84.7603 106.512 84.034 106.683 83.316 106.825C83.2949 106.829 83.2738 106.832 83.2527 106.832C83.0669 106.832 82.9022 106.668 82.8705 106.438V106.436ZM71.0545 106.448C70.3387 106.253 69.6208 106.025 68.9219 105.768C68.7171 105.694 68.6009 105.432 68.6622 105.184C68.7234 104.936 68.9409 104.796 69.1457 104.87C69.8277 105.12 70.5266 105.343 71.2234 105.531C71.4325 105.588 71.5634 105.838 71.5169 106.092C71.4768 106.311 71.3163 106.459 71.139 106.459C71.1115 106.459 71.082 106.455 71.0545 106.448ZM104.087 106.205C103.726 105.459 103.337 104.722 102.934 104.013C102.812 103.799 102.858 103.506 103.033 103.36C103.211 103.214 103.451 103.267 103.574 103.481C103.988 104.21 104.385 104.966 104.756 105.73C104.864 105.955 104.803 106.241 104.617 106.372C104.556 106.416 104.488 106.436 104.421 106.436C104.288 106.436 104.159 106.353 104.085 106.205H104.087ZM87.5412 105.18C87.4778 104.932 87.594 104.669 87.7988 104.593C88.4808 104.339 89.167 104.057 89.8364 103.754C90.037 103.663 90.2608 103.786 90.3368 104.03C90.4128 104.273 90.3094 104.542 90.1088 104.633C89.4246 104.942 88.7236 105.23 88.0268 105.491C87.9888 105.506 87.9508 105.512 87.9128 105.512C87.746 105.512 87.594 105.383 87.5412 105.18ZM66.4261 104.707C65.7483 104.377 65.0705 104.011 64.4138 103.619C64.2217 103.504 64.1414 103.223 64.2364 102.99C64.3315 102.757 64.5637 102.661 64.7559 102.776C65.3957 103.157 66.0566 103.513 66.7153 103.835C66.9138 103.932 67.011 104.205 66.9307 104.445C66.8695 104.627 66.7238 104.739 66.5718 104.739C66.5232 104.739 66.4746 104.728 66.4261 104.705V104.707ZM92.0302 103.174C91.9416 102.939 92.026 102.659 92.2203 102.551C92.8706 102.189 93.521 101.799 94.1502 101.393C94.3381 101.27 94.5746 101.357 94.676 101.586C94.7773 101.814 94.7055 102.098 94.5176 102.221C93.8736 102.638 93.2106 103.036 92.5455 103.405C92.4927 103.434 92.4378 103.447 92.3829 103.447C92.2351 103.447 92.0957 103.346 92.0302 103.174ZM62.0933 102.083C61.4239 101.592 60.8031 101.092 60.2541 100.594C60.0831 100.44 60.0472 100.145 60.176 99.9378C60.3048 99.7303 60.5476 99.6879 60.7187 99.8425C61.2487 100.321 61.8462 100.806 62.4966 101.281C62.6803 101.414 62.7394 101.704 62.6275 101.924C62.5536 102.071 62.4269 102.151 62.296 102.151C62.2284 102.151 62.1587 102.13 62.0954 102.083H62.0933ZM101.384 101.524C100.932 100.859 100.453 100.207 99.959 99.5799C99.8112 99.3914 99.8175 99.0949 99.9716 98.917C100.126 98.7391 100.373 98.7454 100.521 98.9339C101.025 99.5757 101.517 100.247 101.982 100.929C102.119 101.128 102.094 101.425 101.929 101.59C101.857 101.662 101.769 101.698 101.682 101.698C101.57 101.698 101.458 101.641 101.382 101.526L101.384 101.524ZM96.2617 100.465C96.1477 100.247 96.2005 99.9569 96.3821 99.8171C96.9881 99.3512 97.5877 98.8598 98.1621 98.3536C98.3352 98.2011 98.578 98.2477 98.7047 98.4574C98.8314 98.6671 98.7934 98.9594 98.6203 99.1118C98.0312 99.6286 97.4188 100.133 96.8001 100.609C96.7347 100.658 96.6629 100.683 96.5932 100.683C96.4644 100.683 96.3398 100.607 96.2659 100.465H96.2617ZM58.2524 98.4278C57.6844 97.6611 57.2558 96.8859 56.9813 96.1214C56.8968 95.8842 56.9855 95.6067 57.1819 95.5051C57.3783 95.4013 57.6063 95.5114 57.6929 95.7486C57.9336 96.42 58.3158 97.1104 58.8289 97.8009C58.9724 97.9936 58.9598 98.2901 58.7993 98.4638C58.7254 98.5442 58.6325 98.5845 58.5396 98.5845C58.434 98.5845 58.3284 98.5315 58.2503 98.4299L58.2524 98.4278ZM98.1029 97.4154C97.573 96.8457 97.0155 96.2887 96.4475 95.7571C96.2786 95.5983 96.2469 95.3039 96.3778 95.0984C96.5088 94.893 96.7516 94.8549 96.9226 95.0137C97.5054 95.558 98.0755 96.1277 98.6203 96.7123C98.7807 96.8838 98.7955 97.1803 98.6519 97.3752C98.5759 97.4789 98.4682 97.534 98.3605 97.534C98.2698 97.534 98.1768 97.4959 98.1029 97.4154ZM100.147 97.0808C100.008 96.8838 100.027 96.5873 100.189 96.42C100.736 95.8545 101.268 95.2615 101.773 94.6621C101.925 94.48 102.172 94.4821 102.322 94.6664C102.472 94.8506 102.47 95.1471 102.318 95.3293C101.8 95.9456 101.255 96.5513 100.694 97.1316C100.62 97.2078 100.531 97.2439 100.443 97.2439C100.333 97.2439 100.225 97.1888 100.147 97.0808ZM94.3423 93.9484C93.749 93.4782 93.1303 93.0229 92.5053 92.5951C92.3195 92.468 92.2541 92.18 92.3596 91.9555C92.4652 91.731 92.7017 91.6505 92.8896 91.7797C93.5294 92.2181 94.1608 92.684 94.7689 93.1648C94.9484 93.3067 94.999 93.5968 94.8808 93.815C94.8069 93.9526 94.6823 94.0268 94.5556 94.0268C94.4838 94.0268 94.4099 94.0014 94.3445 93.9505L94.3423 93.9484ZM57.0235 93.3088C56.8187 93.2347 56.7026 92.9742 56.7638 92.7243C56.9728 91.8771 57.3888 91.0681 57.999 90.3226C58.149 90.1383 58.396 90.1362 58.548 90.3183C58.7001 90.5005 58.7022 90.797 58.5523 90.9812C58.0328 91.6187 57.6823 92.2943 57.5092 92.9932C57.4585 93.1966 57.3044 93.3279 57.1375 93.3279C57.1016 93.3279 57.0636 93.3215 57.0256 93.3088H57.0235ZM103.572 93.0398C103.409 92.8725 103.388 92.576 103.527 92.379C103.994 91.714 104.44 91.0257 104.849 90.3353C104.974 90.1256 105.217 90.0769 105.39 90.2273C105.563 90.3776 105.603 90.672 105.478 90.8817C105.056 91.5933 104.598 92.3007 104.119 92.9848C104.043 93.0949 103.933 93.15 103.823 93.15C103.734 93.15 103.646 93.114 103.572 93.0377V93.0398ZM90.2143 91.1507C89.5724 90.7822 88.9094 90.4263 88.2443 90.0981C88.0458 90.0007 87.9508 89.7253 88.031 89.486C88.1113 89.2467 88.3393 89.1302 88.5378 89.2297C89.2177 89.5665 89.8934 89.9265 90.548 90.3035C90.7422 90.4158 90.8225 90.6953 90.7317 90.9283C90.6662 91.0977 90.5269 91.1951 90.3812 91.1951C90.3263 91.1951 90.2692 91.1803 90.2143 91.1485V91.1507ZM60.0451 89.0349C59.9437 88.8062 60.0155 88.5224 60.2056 88.3995C60.8179 88.0035 61.5041 87.6392 62.2495 87.3152C62.4522 87.2262 62.6739 87.3533 62.7457 87.5968C62.8175 87.8404 62.714 88.1094 62.5113 88.1983C61.8019 88.5075 61.1494 88.8549 60.5709 89.2276C60.5117 89.2657 60.4505 89.2827 60.3893 89.2827C60.2499 89.2827 60.1169 89.1916 60.0472 89.0349H60.0451ZM85.8182 89.0116C85.1425 88.7384 84.4478 88.4821 83.7552 88.2513C83.5483 88.1814 83.428 87.923 83.485 87.6731C83.542 87.4232 83.7552 87.277 83.9622 87.3469C84.6695 87.5841 85.3769 87.8446 86.0652 88.1221C86.2679 88.2047 86.3777 88.4694 86.3102 88.7151C86.2553 88.9121 86.1053 89.0349 85.9428 89.0349C85.9026 89.0349 85.8604 89.0264 85.8203 89.0116H85.8182ZM106.384 88.3593C106.198 88.2301 106.133 87.9442 106.239 87.7197C106.595 86.9636 106.921 86.1884 107.208 85.4154C107.296 85.1782 107.525 85.0723 107.721 85.1803C107.917 85.2862 108.004 85.5637 107.915 85.8009C107.617 86.6014 107.28 87.4041 106.912 88.1856C106.84 88.3381 106.709 88.4228 106.574 88.4228C106.509 88.4228 106.443 88.4038 106.382 88.3614L106.384 88.3593ZM81.2383 87.51C80.5394 87.33 79.8236 87.1711 79.1162 87.0335C78.9051 86.9932 78.7615 86.7518 78.7953 86.4955C78.8291 86.2393 79.0276 86.0656 79.2387 86.1058C79.9608 86.2456 80.6872 86.4087 81.3988 86.5908C81.6078 86.6438 81.743 86.8937 81.6986 87.1478C81.6606 87.3681 81.498 87.5206 81.3186 87.5206C81.2911 87.5206 81.2658 87.5164 81.2383 87.51ZM64.5088 86.9805C64.4603 86.7285 64.5912 86.4765 64.8002 86.4172C65.4928 86.2244 66.2213 86.0571 66.9687 85.9195C67.1799 85.8813 67.3784 86.0571 67.41 86.3134C67.4417 86.5697 67.296 86.809 67.0849 86.8471C66.3564 86.9805 65.6469 87.1436 64.9755 87.33C64.9459 87.3385 64.9163 87.3427 64.8868 87.3427C64.7094 87.3427 64.5511 87.1966 64.5088 86.9784V86.9805ZM76.5465 86.6311C75.8307 86.5464 75.1065 86.4807 74.3949 86.4405C74.1816 86.4278 74.0148 86.2075 74.0254 85.9491C74.036 85.6907 74.2175 85.4895 74.4308 85.5022C75.1572 85.5446 75.8941 85.6103 76.6226 85.6971C76.8358 85.7225 76.9921 85.9534 76.971 86.2096C76.952 86.4511 76.783 86.6332 76.5846 86.6332C76.5719 86.6332 76.5592 86.6332 76.5465 86.6311ZM69.2365 86.0698C69.2217 85.8115 69.3822 85.587 69.5955 85.5679C70.3134 85.5044 71.0524 85.4641 71.7935 85.4514C72.0068 85.4493 72.1842 85.6547 72.1884 85.9131C72.1926 86.1715 72.0216 86.3854 71.8062 86.3896C71.0798 86.4045 70.3556 86.4426 69.6525 86.504C69.6419 86.504 69.6335 86.504 69.6229 86.504C69.4223 86.504 69.2513 86.3155 69.2365 86.0698ZM108.369 83.1027C108.164 83.0264 108.048 82.7659 108.112 82.5181C108.321 81.69 108.489 80.8492 108.618 80.0169C108.656 79.7627 108.859 79.5933 109.07 79.6399C109.281 79.6865 109.421 79.9322 109.381 80.1863C109.247 81.0525 109.07 81.9294 108.855 82.7913C108.804 82.9925 108.65 83.1238 108.483 83.1238C108.445 83.1238 108.407 83.1175 108.369 83.1027ZM109.273 77.4352C109.06 77.4246 108.891 77.2086 108.899 76.9481C108.908 76.6897 108.912 76.4249 108.912 76.1666C108.912 75.5693 108.891 74.9678 108.846 74.3748C108.827 74.1164 108.986 73.8898 109.199 73.8665C109.412 73.8432 109.6 74.036 109.619 74.2922C109.663 74.9106 109.687 75.5418 109.687 76.1644C109.687 76.4355 109.682 76.7109 109.674 76.9819C109.666 77.234 109.495 77.4331 109.288 77.4331C109.283 77.4331 109.277 77.4331 109.273 77.4331V77.4352ZM108.435 71.3314C108.27 70.5075 108.061 69.6794 107.812 68.8683C107.738 68.6247 107.839 68.3558 108.04 68.2647C108.24 68.1736 108.464 68.2986 108.538 68.5421C108.798 69.3872 109.015 70.2513 109.186 71.1111C109.237 71.3632 109.108 71.6173 108.899 71.6766C108.87 71.6851 108.838 71.6893 108.808 71.6893C108.633 71.6893 108.475 71.5453 108.43 71.3293L108.435 71.3314ZM106.762 66.0451C106.435 65.2996 106.068 64.5541 105.666 63.8256C105.548 63.6095 105.597 63.3194 105.774 63.1754C105.951 63.0314 106.194 63.0907 106.312 63.3067C106.726 64.0607 107.109 64.8337 107.448 65.6067C107.55 65.8355 107.476 66.1193 107.288 66.24C107.231 66.2781 107.168 66.295 107.106 66.295C106.967 66.295 106.834 66.204 106.764 66.0451H106.762ZM104.127 61.337C103.682 60.6869 103.198 60.0388 102.691 59.4076C102.541 59.2213 102.546 58.9248 102.7 58.7447C102.854 58.5647 103.099 58.569 103.249 58.7553C103.77 59.4034 104.266 60.0705 104.725 60.7377C104.862 60.9368 104.839 61.2333 104.674 61.3985C104.602 61.4705 104.513 61.5065 104.427 61.5065C104.315 61.5065 104.205 61.4493 104.129 61.337H104.127ZM100.825 57.2474C100.293 56.6713 99.7394 56.1037 99.1819 55.5615C99.0151 55.3985 98.9877 55.1041 99.1228 54.9029C99.2579 54.7017 99.5008 54.6678 99.6676 54.8309C100.238 55.3836 100.801 55.9618 101.342 56.5506C101.502 56.7243 101.515 57.0208 101.372 57.2135C101.296 57.3173 101.19 57.3702 101.082 57.3702C100.989 57.3702 100.896 57.33 100.823 57.2495L100.825 57.2474ZM97.1148 53.6787C96.532 53.1832 95.9281 52.696 95.32 52.2343C95.1384 52.0967 95.0835 51.8065 95.1975 51.5884C95.3115 51.3681 95.5522 51.3025 95.7317 51.4422C96.3525 51.9145 96.967 52.4101 97.5603 52.9142C97.7355 53.0624 97.7778 53.3568 97.6532 53.5686C97.5772 53.6978 97.4568 53.7677 97.3365 53.7677C97.2583 53.7677 97.1823 53.7402 97.1127 53.683L97.1148 53.6787ZM93.0881 50.6459C92.4652 50.2329 91.8212 49.8284 91.173 49.4472C90.9808 49.3328 90.9006 49.0533 90.9956 48.8203C91.0906 48.5873 91.3229 48.4899 91.515 48.6043C92.1738 48.994 92.8284 49.4027 93.4618 49.8242C93.6498 49.9491 93.7173 50.235 93.616 50.4617C93.5463 50.6163 93.4133 50.7052 93.276 50.7052C93.2127 50.7052 93.1493 50.6862 93.0902 50.648L93.0881 50.6459ZM88.8144 48.151C88.1598 47.8164 87.4842 47.4924 86.8085 47.1874C86.6079 47.0963 86.5044 46.8273 86.5804 46.5838C86.6543 46.3402 86.8782 46.2174 87.0788 46.3085C87.765 46.6177 88.4512 46.9459 89.1164 47.2869C89.3127 47.3886 89.4056 47.6639 89.3233 47.9011C89.2599 48.0811 89.1164 48.187 88.9664 48.187C88.9158 48.187 88.8651 48.1743 88.8165 48.151H88.8144ZM84.3549 46.1687C83.6771 45.9082 82.9803 45.6604 82.2835 45.4274C82.0766 45.3596 81.9562 45.1013 82.0132 44.8514C82.0703 44.6014 82.2835 44.4553 82.4904 44.5231C83.1978 44.7582 83.9052 45.0102 84.5914 45.2749C84.7962 45.3533 84.9081 45.6159 84.8448 45.8637C84.792 46.0628 84.64 46.192 84.4753 46.192C84.4373 46.192 84.3971 46.1856 84.357 46.1708L84.3549 46.1687ZM79.7645 44.6629C79.0698 44.4722 78.3582 44.2901 77.6466 44.1249C77.4355 44.0762 77.2982 43.8305 77.3384 43.5764C77.3785 43.3222 77.5812 43.1549 77.7923 43.2036C78.5124 43.3709 79.2345 43.5531 79.9376 43.7479C80.1467 43.8051 80.2776 44.0571 80.229 44.3092C80.1889 44.5273 80.0284 44.6734 79.8511 44.6734C79.8215 44.6734 79.794 44.6692 79.7645 44.6607V44.6629ZM48.7274 43.5912C48.6936 43.3349 48.8372 43.0935 49.0483 43.0533C49.7515 42.9156 50.4799 42.7843 51.2126 42.6636C51.4238 42.6297 51.6202 42.8076 51.6497 43.066C51.6793 43.3222 51.5294 43.5594 51.3182 43.5933C50.594 43.7119 49.8718 43.8432 49.175 43.9809C49.1539 43.9851 49.1328 43.9872 49.1117 43.9872C48.9259 43.9872 48.7612 43.8242 48.7295 43.5933L48.7274 43.5912ZM75.0854 43.5954C74.3822 43.4662 73.6601 43.3476 72.938 43.2439C72.7247 43.2121 72.5727 42.9791 72.598 42.7229C72.6234 42.4666 72.8176 42.2823 73.0288 42.312C73.7572 42.4179 74.4878 42.5365 75.1994 42.6678C75.4106 42.7059 75.5562 42.9452 75.5246 43.2015C75.495 43.4345 75.3303 43.5997 75.1424 43.5997C75.1234 43.5997 75.1044 43.5997 75.0833 43.5933L75.0854 43.5954ZM53.4741 42.797C53.4508 42.5386 53.605 42.3078 53.8182 42.2802C54.5383 42.187 55.271 42.1023 55.9952 42.0303C56.2106 42.007 56.3964 42.1997 56.4133 42.4581C56.4302 42.7165 56.2718 42.9431 56.0586 42.9643C55.3406 43.0363 54.6143 43.121 53.9006 43.2121C53.8858 43.2121 53.8731 43.2142 53.8584 43.2142C53.662 43.2142 53.4952 43.0363 53.4741 42.7949V42.797ZM70.3535 42.9241C69.6419 42.8521 68.9134 42.7906 68.1913 42.7398C67.978 42.725 67.8133 42.5047 67.826 42.2442C67.8387 41.9858 68.0203 41.7868 68.2356 41.8016C68.9662 41.8503 69.701 41.9138 70.4189 41.988C70.6322 42.0091 70.7906 42.2357 70.7737 42.4941C70.7568 42.7398 70.5879 42.9241 70.3873 42.9241C70.3767 42.9241 70.3662 42.9241 70.3535 42.9241ZM58.2461 42.3056C58.2334 42.0473 58.3981 41.8249 58.6114 41.8122C59.3377 41.7635 60.0747 41.7253 60.7968 41.6978C60.801 41.6978 60.8052 41.6978 60.8095 41.6978C61.0185 41.6978 61.1895 41.899 61.198 42.1531C61.2043 42.4115 61.0354 42.6276 60.8221 42.636C60.1063 42.6636 59.3757 42.6996 58.6557 42.7483C58.6494 42.7483 58.6409 42.7483 58.6346 42.7483C58.4298 42.7483 58.2587 42.5556 58.2482 42.3056H58.2461ZM65.592 42.6149C64.9142 42.5958 64.2217 42.5852 63.5354 42.5852H63.4235C63.2102 42.5852 63.035 42.3755 63.035 42.1171C63.035 41.8588 63.2081 41.647 63.4235 41.647H63.5354C64.228 41.647 64.9269 41.6576 65.611 41.6766C65.8243 41.683 65.9953 41.8969 65.989 42.1574C65.9848 42.4115 65.8116 42.6149 65.6005 42.6149C65.5962 42.6149 65.5941 42.6149 65.5899 42.6149H65.592Z" fill="#E8BA02"/>
<path d="M106.114 110.466C106.165 110.466 106.217 110.453 106.268 110.428C106.464 110.324 106.555 110.049 106.469 109.811C106.323 109.409 106.171 109.004 106.017 108.611C105.924 108.378 105.694 108.278 105.499 108.388C105.305 108.5 105.223 108.78 105.316 109.013C105.468 109.398 105.616 109.792 105.757 110.184C105.82 110.36 105.964 110.466 106.114 110.466Z" fill="#D59333"/>
</svg>
