<svg width="176" height="143" viewBox="0 0 176 143" fill="none" xmlns="http://www.w3.org/2000/svg">
<rect width="176" height="143" fill="#F5F5F5"/>
<g clip-path="url(#clip0_3023_4294)">
<rect x="-760" y="-1906" width="1640" height="2308" rx="16" fill="#1D2125"/>
<path d="M174.827 55.4502C171.923 42.8301 166.066 31.082 158.078 22.3999C147.921 11.3611 135.131 6.05105 122.238 6.06268C107.464 6.07819 96.1389 16.6731 80.7339 12.9716C75.8834 11.8069 66.3489 7.86307 62.9539 5.80687C52.7652 -0.36948 40.3099 -2.85591 24.9823 4.60338C8.86882 12.4445 3.52476 28.0045 6.51131 42.9367C6.92939 44.551 7.36876 46.146 7.79071 47.7564C8.94043 52.1518 9.94111 56.6401 9.93724 61.7952C9.93143 71.0742 6.49777 79.237 3.24411 87.4909C3.24411 87.4909 3.24411 87.4967 3.24023 87.4986C2.37891 89.6808 1.53114 91.8727 0.760794 94.0916C-3.10644 110.706 7.34941 133.962 41.808 139.851C85.3018 147.285 130.356 143.783 161.909 104.747C166.463 99.113 169.489 92.9792 171.604 87.3998C175.586 77.6653 177.355 66.4618 174.821 55.4483H174.825L174.827 55.4502Z" fill="white" fill-opacity="0.05"/>
<path d="M81.0312 50.375C101.276 50.375 117.687 66.7866 117.687 87.0312C117.687 95.915 114.526 104.06 109.269 110.404L132.661 133.798C133.946 135.082 133.946 137.165 132.661 138.449C131.377 139.733 129.294 139.734 128.01 138.449L104.635 115.073C98.2573 120.447 90.0235 123.688 81.0312 123.688C60.7866 123.688 44.375 107.063 44.375 86.8184C44.3752 66.5739 60.7867 50.375 81.0312 50.375ZM81.0312 56.75C64.2293 56.75 50.6086 70.0165 50.6084 86.8184C50.6084 103.62 64.2291 117.312 81.0312 117.312C97.8333 117.312 111.312 103.833 111.312 87.0312C111.312 70.2291 97.8333 56.75 81.0312 56.75Z" fill="#6D6D6D"/>
</g>
<defs>
<clipPath id="clip0_3023_4294">
<rect x="-760" y="-1906" width="1640" height="2308" rx="16" fill="white"/>
</clipPath>
</defs>
</svg>
