<svg xmlns="http://www.w3.org/2000/svg" width="192" height="176" fill="none" viewBox="0 0 192 176">
  <path fill="#9A9A9A" fill-opacity=".1" d="M190.72 60.598c-3.167-13.792-9.557-26.63-18.271-36.119-11.081-12.063-25.034-17.866-39.099-17.853-16.117.016-28.471 11.595-45.277 7.55-5.291-1.273-15.693-5.583-19.396-7.83-11.115-6.75-24.703-9.467-41.424-1.315C9.675 13.6 3.845 30.604 7.103 46.923c.456 1.764.935 3.507 1.396 5.267 1.254 4.803 2.346 9.708 2.341 15.342-.006 10.14-3.752 19.061-7.301 28.081 0 0 0 .007-.004.009-.94 2.384-1.865 4.78-2.705 7.205-4.22 18.156 7.187 43.571 44.779 50.007 47.447 8.125 96.597 4.298 131.019-38.363 4.968-6.157 8.268-12.86 10.576-18.957 4.344-10.639 6.274-22.882 3.51-34.918h.004l.002.002Z"/>
  <path fill="#FF462D" fill-rule="evenodd" d="M143.812 107.577H38.509v48.881a5.282 5.282 0 0 0 3.752 5.06c10.581 3.181 40.334 12.135 47.387 14.26.988.296 2.04.296 3.028 0l47.386-14.26a5.282 5.282 0 0 0 3.752-5.06v-48.881h-.002Z" clip-rule="evenodd"/>
  <path fill="#C92312" fill-rule="evenodd" d="M143.812 107.577H91.159S90.65 176 91.16 176a5.27 5.27 0 0 0 1.514-.222c7.053-2.122 36.806-11.077 47.387-14.26a5.282 5.282 0 0 0 3.752-5.06v-48.881Z" clip-rule="evenodd"/>
  <path fill="#FC7454" fill-rule="evenodd" d="m91.162 124.711-52.653-17.134s-9.231 13.73-13.36 19.868a2.641 2.641 0 0 0 1.368 3.988l47.375 15.437a2.628 2.628 0 0 0 2.994-1.029l14.276-21.13Z" clip-rule="evenodd"/>
  <path fill="#FC7454" fill-rule="evenodd" d="M143.812 107.577 91.16 124.711l14.276 21.13a2.627 2.627 0 0 0 2.994 1.029c7.766-2.528 37.371-12.177 47.374-15.437a2.641 2.641 0 0 0 1.368-3.988l-13.36-19.868Z" clip-rule="evenodd"/>
  <path fill="#FF462D" fill-rule="evenodd" d="M78.417 71.583a2.627 2.627 0 0 0-2.99-1.025c-7.762 2.527-37.376 12.178-47.376 15.44a2.63 2.63 0 0 0-1.677 1.65 2.643 2.643 0 0 0 .309 2.336c3.8 5.657 11.828 17.591 11.828 17.591l52.653-17.193s-9.455-13.95-12.745-18.8l-.002.001Z" clip-rule="evenodd"/>
  <path fill="#FC7454" fill-rule="evenodd" d="M155.641 89.984a2.651 2.651 0 0 0 .308-2.336 2.63 2.63 0 0 0-1.676-1.65 241729.28 241729.28 0 0 0-47.376-15.44 2.626 2.626 0 0 0-2.99 1.025l-12.745 18.8 52.652 17.194 11.829-17.591-.002-.002Z" clip-rule="evenodd"/>
  <path fill="#FF462D" fill-rule="evenodd" d="M143.812 107.577 91.159 90.384l-52.652 17.193 52.652 17.134 52.653-17.134Z" clip-rule="evenodd"/>
  <path fill="#B72C25" fill-rule="evenodd" d="M91.162 124.711V90.384l-52.653 17.193 52.653 17.134Z" clip-rule="evenodd"/>
  <path fill="#989898" d="M35.23 46.181c1.122.189 2.467-1.404 3.005-3.56.538-2.154.068-4.056-1.054-4.244-1.12-.189-2.466 1.404-3.004 3.56-.539 2.154-.068 4.056 1.053 4.244Z"/>
  <path fill="#989898" d="M35.857 49.151c2.443-.323 4.292-1.586 4.13-2.82-.163-1.233-2.275-1.971-4.718-1.648-2.443.324-4.292 1.586-4.13 2.82.163 1.234 2.275 1.972 4.718 1.648Z"/>
  <path fill="#CBCBCB" d="M35.248 46.446c1.059-.456 1.22-2.453.36-4.46-.858-2.006-2.413-3.262-3.472-2.806-1.059.456-1.22 2.452-.36 4.459.859 2.006 2.414 3.263 3.472 2.807Z"/>
  <path fill="gray" d="M30.777 47.012c.26.324.822.345 1.252.048.431-.296.568-.8.309-1.124-.26-.324-.822-.345-1.252-.049-.431.297-.568.8-.309 1.125Z"/>
  <path fill="#989898" d="M38.573 49.587a.097.097 0 0 0 .044-.087c-.004-.053-.053-.09-.112-.087-1.393.132-4.14-1.876-4.356-2.067-.04-.036-.108-.034-.15.005-.042.04-.042.101 0 .137.026.023 2.918 2.269 4.519 2.118.02 0 .04-.008.055-.019ZM37.166 50a.097.097 0 0 0 .045-.087c-.004-.053-.053-.091-.112-.087-1.392.132-4.14-1.876-4.356-2.067a.115.115 0 0 0-.15.004c-.042.04-.042.102 0 .138.025.023 2.918 2.268 4.519 2.118.02 0 .04-.008.054-.02Zm3.157-.843a.095.095 0 0 0 .043-.1c-.013-.053-.068-.082-.125-.07-1.366.314-4.426-1.294-4.669-1.45a.117.117 0 0 0-.15.025.09.09 0 0 0 .022.136c.03.019 3.268 1.84 4.84 1.48a.136.136 0 0 0 .04-.017v-.004Z"/>
  <path fill="#E8BA02" d="M45.486 44.822c.03 0 .061-.005.09-.013.005 0 .372-.108 1.04-.271.209-.051.346-.299.304-.553-.043-.254-.247-.417-.459-.366-.684.167-1.051.273-1.066.277-.209.062-.336.313-.287.566.042.216.203.36.378.36ZM78.1 106.891c-.004-.259.167-.472.38-.477a25.89 25.89 0 0 0 2.148-.133c.215-.021.401.169.42.428.02.258-.141.485-.355.506-.73.074-1.471.121-2.198.135h-.006c-.211 0-.384-.205-.388-.461v.002Zm-2.248.387a26.341 26.341 0 0 1-2.194-.264c-.213-.034-.361-.271-.332-.528.03-.256.224-.436.438-.402.705.114 1.423.201 2.139.256.213.017.375.24.363.498-.013.248-.184.438-.387.438h-.025l-.002.002Zm7.019-.842c-.034-.257.11-.498.32-.538a29.055 29.055 0 0 0 2.112-.498c.209-.057.416.099.464.354.049.252-.082.504-.29.561-.717.197-1.443.368-2.161.51a.34.34 0 0 1-.063.007c-.186 0-.35-.164-.382-.394v-.002Zm-11.817.012a26.025 26.025 0 0 1-2.132-.68c-.205-.074-.321-.336-.26-.584.061-.248.279-.388.484-.314a24.9 24.9 0 0 0 2.077.661c.21.057.34.307.294.561-.04.219-.2.367-.378.367a.35.35 0 0 1-.085-.011Zm33.033-.243a37.6 37.6 0 0 0-1.153-2.192c-.122-.214-.076-.507.099-.653.178-.146.418-.093.541.121.414.729.811 1.485 1.182 2.249.108.225.047.511-.139.642a.332.332 0 0 1-.196.064c-.134 0-.262-.083-.336-.231h.002Zm-16.546-1.025c-.063-.248.053-.511.258-.587a32.287 32.287 0 0 0 2.037-.839c.2-.091.425.032.5.276.077.243-.027.512-.227.603a34.35 34.35 0 0 1-2.082.858.307.307 0 0 1-.114.021c-.167 0-.32-.129-.372-.332Zm-21.115-.473a27.025 27.025 0 0 1-2.012-1.088c-.192-.115-.273-.396-.178-.629.095-.233.328-.329.52-.214.64.381 1.3.737 1.96 1.059.198.097.295.37.215.61-.062.182-.207.294-.36.294a.337.337 0 0 1-.145-.034v.002Zm25.604-1.533c-.088-.235-.004-.515.19-.623.65-.362 1.3-.752 1.93-1.158.188-.123.425-.036.526.193.101.228.03.512-.159.635a33.29 33.29 0 0 1-1.972 1.184.334.334 0 0 1-.162.042c-.148 0-.287-.101-.353-.273Zm-29.937-1.091c-.67-.491-1.29-.991-1.839-1.489-.171-.154-.207-.449-.078-.656.129-.208.372-.25.543-.096.53.479 1.127.964 1.777 1.439.184.133.243.423.131.643-.074.147-.2.227-.331.227a.334.334 0 0 1-.2-.068h-.003Zm39.291-.559a34.375 34.375 0 0 0-1.425-1.944.542.542 0 0 1 .013-.663c.154-.178.401-.172.549.017.504.642.996 1.313 1.461 1.995a.54.54 0 0 1-.053.661.351.351 0 0 1-.247.108.36.36 0 0 1-.3-.172l.002-.002Zm-5.122-1.059c-.114-.218-.062-.508.12-.648a34.54 34.54 0 0 0 1.78-1.463c.173-.153.416-.106.543.103.126.21.088.502-.085.655a36.808 36.808 0 0 1-1.82 1.497.347.347 0 0 1-.207.074c-.129 0-.253-.076-.327-.218h-.004Zm-38.01-2.037c-.568-.767-.996-1.542-1.27-2.307-.085-.237.004-.514.2-.616.196-.104.424.006.51.244.242.671.624 1.361 1.137 2.052a.54.54 0 0 1-.03.663.352.352 0 0 1-.26.12.368.368 0 0 1-.289-.154l.002-.002Zm39.85-1.013a34.02 34.02 0 0 0-1.654-1.658.54.54 0 0 1-.07-.659c.13-.205.373-.243.544-.084a34.733 34.733 0 0 1 1.698 1.698.54.54 0 0 1 .032.663.365.365 0 0 1-.291.159.349.349 0 0 1-.258-.119Zm2.045-.334a.537.537 0 0 1 .042-.661 34.641 34.641 0 0 0 1.584-1.758.343.343 0 0 1 .549.004.542.542 0 0 1-.005.663 34.54 34.54 0 0 1-1.623 1.803.349.349 0 0 1-.252.112.365.365 0 0 1-.295-.163Zm-5.805-3.133a32.827 32.827 0 0 0-1.837-1.353c-.185-.127-.251-.415-.145-.64.105-.224.342-.305.53-.175.64.438 1.27.904 1.879 1.385.18.142.23.432.112.65a.374.374 0 0 1-.326.212.345.345 0 0 1-.21-.076l-.003-.003Zm-37.319-.64c-.204-.073-.32-.334-.26-.584.21-.847.626-1.656 1.236-2.401a.343.343 0 0 1 .549-.005.542.542 0 0 1 .004.663c-.52.638-.87 1.313-1.043 2.012-.05.204-.205.335-.371.335a.355.355 0 0 1-.112-.02h-.003Zm46.549-.268a.539.539 0 0 1-.045-.661 31.61 31.61 0 0 0 1.322-2.044c.125-.21.368-.258.541-.108.173.15.213.445.088.655-.422.711-.88 1.419-1.359 2.103a.36.36 0 0 1-.296.165.346.346 0 0 1-.251-.112v.002Zm-13.358-1.89a35.755 35.755 0 0 0-1.97-1.052c-.198-.097-.293-.373-.213-.612.08-.24.308-.356.507-.256.68.337 1.355.697 2.01 1.073.194.113.274.392.184.625-.066.17-.205.267-.35.267a.332.332 0 0 1-.168-.046v.002Zm-30.169-2.115c-.101-.229-.03-.513.16-.635.613-.397 1.3-.76 2.044-1.085.203-.089.425.038.497.282.071.243-.032.512-.235.601a13.7 13.7 0 0 0-1.94 1.03.33.33 0 0 1-.182.055c-.14 0-.272-.091-.342-.248h-.002Zm25.773-.023a35.32 35.32 0 0 0-2.063-.76c-.207-.07-.327-.329-.27-.579.057-.25.27-.396.477-.326a37.74 37.74 0 0 1 2.103.775c.203.083.313.347.245.593-.055.197-.205.32-.367.32a.36.36 0 0 1-.123-.023h-.002Zm20.566-.653c-.186-.129-.251-.415-.145-.64.356-.755.682-1.53.969-2.304.088-.237.316-.343.513-.235.196.106.283.384.194.62a31.073 31.073 0 0 1-1.003 2.386c-.072.152-.203.237-.338.237a.333.333 0 0 1-.192-.062l.002-.002Zm-25.146-.849a36.518 36.518 0 0 0-2.122-.477c-.211-.04-.355-.281-.32-.537.033-.257.231-.43.443-.39.722.14 1.448.303 2.16.485.209.053.344.303.3.557-.038.22-.201.373-.38.373a.344.344 0 0 1-.08-.011Zm-16.73-.53c-.048-.252.083-.504.292-.563.693-.193 1.421-.36 2.169-.498.21-.038.41.138.441.394.032.257-.114.496-.325.534a24.25 24.25 0 0 0-2.11.483.32.32 0 0 1-.088.013c-.178 0-.336-.146-.378-.365v.003Zm12.038-.349c-.715-.085-1.44-.15-2.151-.19-.213-.013-.38-.234-.37-.492.01-.258.192-.46.406-.447.726.043 1.463.108 2.192.195.213.025.369.256.348.513-.02.241-.188.423-.386.423-.013 0-.026 0-.038-.002Zm-7.31-.561c-.014-.258.146-.483.36-.502a31.09 31.09 0 0 1 2.197-.117c.214-.002.391.204.395.462.004.258-.166.472-.382.477-.726.014-1.45.053-2.154.114h-.03c-.2 0-.37-.189-.386-.434Zm39.133-2.967c-.205-.077-.321-.337-.258-.585.209-.828.378-1.669.507-2.501.038-.254.241-.424.452-.377.211.046.351.292.31.546-.133.866-.31 1.743-.525 2.605-.051.202-.205.333-.372.333a.31.31 0 0 1-.114-.021Zm.904-5.668c-.213-.01-.382-.226-.374-.487a23.755 23.755 0 0 0-.053-2.573c-.019-.259.14-.485.353-.508.213-.024.401.169.42.425a26.523 26.523 0 0 1 .055 2.69c-.008.252-.18.451-.386.451h-.015v.002Zm-.839-6.104a25.163 25.163 0 0 0-.622-2.463c-.074-.243.027-.512.228-.603.2-.091.424.034.498.277.26.845.477 1.71.648 2.57.051.251-.078.505-.287.565a.336.336 0 0 1-.091.012c-.175 0-.333-.144-.378-.36l.004.002Zm-1.672-5.286a27.66 27.66 0 0 0-1.096-2.22c-.118-.216-.069-.506.108-.65.177-.144.42-.084.538.132.414.754.796 1.527 1.136 2.3.102.228.028.512-.16.633a.325.325 0 0 1-.182.055c-.139 0-.272-.091-.342-.25h-.002Zm-2.635-4.708a32.03 32.03 0 0 0-1.436-1.93.539.539 0 0 1 .009-.662c.154-.18.399-.176.549.01a33.315 33.315 0 0 1 1.476 1.983.538.538 0 0 1-.051.66.351.351 0 0 1-.247.108.36.36 0 0 1-.298-.169h-.002Zm-3.302-4.09a44.149 44.149 0 0 0-1.643-1.685.536.536 0 0 1-.06-.66c.136-.2.379-.234.546-.071.57.553 1.133 1.13 1.674 1.72a.54.54 0 0 1 .03.663.36.36 0 0 1-.29.156.349.349 0 0 1-.259-.12l.002-.003Zm-3.71-3.568a41.938 41.938 0 0 0-1.795-1.445c-.182-.137-.237-.428-.123-.646.114-.22.355-.285.535-.146.62.472 1.235.968 1.828 1.472.175.148.218.443.093.655a.374.374 0 0 1-.317.199.348.348 0 0 1-.223-.085l.002-.004Zm-4.027-3.033a42.091 42.091 0 0 0-1.915-1.199c-.192-.114-.273-.394-.177-.627.095-.233.327-.33.519-.216.659.39 1.313.799 1.947 1.22.188.125.255.411.154.638-.07.154-.203.243-.34.243a.34.34 0 0 1-.186-.057l-.002-.002Zm-4.274-2.495a46.097 46.097 0 0 0-2.006-.964c-.2-.09-.304-.36-.228-.603.074-.244.298-.367.499-.276.686.31 1.372.638 2.037.979.197.102.29.377.207.614-.063.18-.207.286-.357.286a.346.346 0 0 1-.15-.036h-.002Zm-4.46-1.982a49.961 49.961 0 0 0-2.07-.742c-.208-.067-.328-.326-.27-.576.056-.25.27-.396.476-.328.708.235 1.415.487 2.101.752.205.078.317.34.254.589-.053.199-.205.328-.37.328a.341.341 0 0 1-.118-.021l-.002-.002Zm-4.59-1.506a55.12 55.12 0 0 0-2.117-.538c-.212-.049-.349-.294-.309-.549.04-.254.243-.421.454-.372.72.167 1.442.35 2.146.544.209.057.34.31.291.561-.04.218-.2.364-.378.364a.305.305 0 0 1-.087-.012v.002ZM48.727 43.59c-.033-.256.11-.498.321-.538a73.35 73.35 0 0 1 2.165-.39c.21-.033.407.145.437.403.03.256-.12.493-.332.527-.724.119-1.446.25-2.143.388a.325.325 0 0 1-.063.006c-.186 0-.35-.163-.383-.394l-.002-.002Zm26.358.004a55.904 55.904 0 0 0-2.147-.351c-.213-.032-.365-.265-.34-.521.025-.256.22-.44.43-.411.73.106 1.46.224 2.171.356.212.038.357.277.326.534-.03.233-.195.398-.383.398-.019 0-.038 0-.059-.007l.002.002Zm-21.611-.798c-.023-.258.13-.49.344-.517a74.27 74.27 0 0 1 2.177-.25c.216-.023.401.17.418.428.017.259-.141.485-.354.506-.718.072-1.445.157-2.158.248l-.043.002c-.196 0-.363-.178-.384-.42v.003Zm16.88.127a71.276 71.276 0 0 0-2.163-.184c-.213-.015-.378-.235-.365-.496.013-.258.194-.457.41-.442.73.048 1.465.112 2.183.186.213.021.371.248.355.506-.017.246-.186.43-.387.43h-.034Zm-12.108-.618c-.013-.259.152-.481.365-.494a76.216 76.216 0 0 1 2.186-.114h.012c.21 0 .38.201.389.455.006.258-.163.475-.376.483a79.33 79.33 0 0 0-2.166.112h-.021c-.205 0-.376-.192-.387-.442h-.002Zm7.346.309c-.678-.02-1.37-.03-2.057-.03h-.112c-.213 0-.388-.21-.388-.468s.173-.47.388-.47h.112c.693 0 1.392.01 2.076.03.213.006.384.22.378.48-.004.255-.177.458-.389.458h-.01.002Z"/>
  <path fill="#D59333" d="M106.114 110.466c.05 0 .103-.013.154-.038.196-.104.287-.379.2-.617a47.263 47.263 0 0 0-.451-1.2c-.093-.233-.323-.333-.518-.223-.194.112-.276.392-.183.625.152.385.299.779.441 1.171.063.176.207.282.357.282Z"/>
</svg>
