<svg xmlns="http://www.w3.org/2000/svg" width="176" height="160" fill="none" viewBox="0 0 176 160">
  <path fill="#9A9A9A" fill-opacity=".1" d="M174.827 55.45c-2.904-12.62-8.76-24.368-16.749-33.05-10.157-11.039-22.947-16.349-35.84-16.337-14.774.015-26.1 10.61-41.504 6.909-4.85-1.165-14.385-5.109-17.78-7.165C52.765-.37 40.31-2.856 24.982 4.603 8.87 12.444 3.525 28.004 6.512 42.937c.417 1.614.857 3.209 1.279 4.82 1.15 4.395 2.15 8.883 2.146 14.038-.006 9.28-3.44 17.442-6.693 25.696 0 0 0 .006-.004.008-.861 2.182-1.709 4.374-2.48 6.593-3.866 16.614 6.59 39.87 41.048 45.759 43.494 7.434 88.548 3.932 120.101-35.104 4.554-5.634 7.58-11.768 9.695-17.347 3.982-9.735 5.751-20.938 3.217-31.952h.004l.002.002Z"/>
  <path fill="#6D6D6D" d="M91.5 55c9.665 0 17.5 7.835 17.5 17.5V97a3.5 3.5 0 1 1-7 0v-3.5H46v21h35a3.5 3.5 0 1 1 0 7H46v14c0 5.799 4.701 10.5 10.5 10.5h28a3.5 3.5 0 1 1 0 7h-28c-9.665 0-17.5-7.835-17.5-17.5v-63C39 62.835 46.835 55 56.5 55h35Zm17.5 49c11.598 0 21 9.402 21 21 0 4.536-1.438 8.735-3.883 12.168l9.858 9.857a3.502 3.502 0 0 1 0 4.95 3.502 3.502 0 0 1-4.95 0l-9.857-9.858A20.901 20.901 0 0 1 109 146c-11.598 0-21-9.402-21-21s9.402-21 21-21Zm0 7c-7.732 0-14 6.268-14 14s6.268 14 14 14 14-6.268 14-14-6.268-14-14-14Zm-52.5 17.5a3.5 3.5 0 1 1 0 7 3.5 3.5 0 0 1 0-7Zm0-28a3.5 3.5 0 1 1 0 7 3.5 3.5 0 0 1 0-7Zm0-38.5C50.701 62 46 66.701 46 72.5v14h56v-14c0-5.799-4.701-10.5-10.5-10.5h-35Zm0 10.5a3.5 3.5 0 1 1 0 7 3.5 3.5 0 0 1 0-7Z"/>
</svg>
