<svg xmlns="http://www.w3.org/2000/svg" width="211" height="245" fill="none" viewBox="0 0 211 245">
  <g clip-path="url(#a)">
    <path fill="#CC5239" d="M200.52 150.75a3.24 3.24 0 0 1-3.2-3.8c3.19-18.11-2.78-41.95-30.11-49.53a3.233 3.233 0 0 1-2.25-3.98c.48-1.72 2.26-2.74 3.98-2.25 29.5 8.18 38.71 34.47 34.76 56.9a3.233 3.233 0 0 1-3.18 2.67v-.01Z"/>
    <path fill="#CC5239" d="M210.41 150.62c-.38-4.76-4.21-8.01-7.69-8.52-4.9-.72-9.6-.49-11.64 4.78-2.04 5.27-2.66 9.47-1.53 10.44 1.13.97 3.68.15 4.25-1.75.57-1.89 1.13-3.64 2.32-3.3 1.19.34 1.64 2.57 1.02 4.66-.62 2.09-3.91 6.85-1.81 7.72 1.04.43 2.41-.21 3.71-1.45.3.81 1.36 1.95 3.61.49.5-.32.95-.82 1.36-1.39 1.19.9 3.11.56 4.46-1.52 1.36-2.11 2.34-5.4 1.96-10.16h-.02Z"/>
    <path fill="#B72C25" d="M191.57 102.39c.04-.39.06-.83.07-1.27.03-.66.04-1.19.02-1.95v-.55c0-.64-.05-1.39-.09-2.14.02.23.04.45.05.66-.04-.68-.1-1.57-.14-2.26v-.08l-.08-.9-.06-.69c-.01-.15-.03-.3-.04-.45l-.06-.67-.05-.61-.06-.67-.04-.52-.03-.4c-.03-.39-.07-.78-.1-1.16l-.02-.24-.02-.18c-.04-.5-.09-1-.13-1.5v-.12l-.02-.11-.33-3.84-.05-.55-.04-.5c-.03-.31-.05-.61-.08-.92l-.03-.38-.02-.29-.12-1.41v-.1l-.02-.08-.15-1.72c0-.05 0-.09-.01-.14v-.08c-.19-1.9-.3-2.85-.56-4.18-.02-.09-.03-.18-.04-.27-.06-.36-.14-.72-.21-1.07-.1-.57-.23-1.19-.38-1.86-1.58-7.62-5.48-16.81-14.5-24.24-.01 0-.02-.02-.03-.03a.435.435 0 0 0-.07-.06 30.44 30.44 0 0 0-1.89-1.56l-.4-.31c-.11-.09-.23-.17-.35-.26-.37-.28-.73-.54-1.07-.78-.07-.05-.14-.11-.22-.16l.13.09c-.26-.19-.52-.36-.77-.53l-.11-.08-.13-.08c-1.02-.68-1.87-1.19-2.44-1.53-.43-.26-1.51-.87-3.02-1.62-.02 0-.04-.02-.05-.03l-.07-.03c-.65-.32-1.37-.66-2.17-1.01l-.07-.03c-.08-.04-.18-.08-.27-.12-.66-.29-1.35-.58-2.09-.86-.59-.23-1.18-.45-1.77-.66l-.34-.13c-.1-.04-.22-.08-.33-.11-.01 0-.02 0-.04-.01-.14-.05-.28-.1-.43-.14-.03-.01-.06-.02-.1-.03-.1-.04-.21-.07-.31-.11.04.02.09.03.13.05-.25-.08-.5-.17-.75-.25-3.83-1.28-7.57-2.16-10.95-2.8-.43-.08-.86-.16-1.27-.24-.14-.03-.27-.05-.4-.07l-.24-.04c-.26-.05-.52-.09-.77-.13l-1.08-.18-1.14-.18-2.12-.3-4.47-.6s-.07 0-.1-.01h.01-.03c-.5-.07-1.09-.14-1.63-.2a4.69 4.69 0 0 1-.37-.05c-.03 0-.07 0-.1-.01l-.7-.07c-.43-.05-.85-.09-1.26-.13l-.14-.02c-.28-.03-.61-.06-.94-.09l-1.02-.09c-.08 0-.16-.01-.23-.02l-.25-.02c-.6-.05-1.18-.09-1.74-.12h-.13c-1.6-.1-2.97-.14-4.07-.16h-2.47c-.49 0-.92.01-1.34.02h.19c-.2 0-.47.01-.68.02-.09 0-.19 0-.29.01-.44.01-.83.03-1.17.05-.34.02-.64.03-.9.05-1.18.07-1.8.11-2.83.23l-.25.02-2.2.27-6.53.92-6.53.92-6.53.92-6.53.92-6.53.92-6.53.92-6.53.92-6.53.92-6.53.92-6.53.92c-.26.04-.5.08-.73.11-.07.01-.12.02-.19.03-.81.13-1.43.24-2.02.35-.4.08-.82.16-1.25.26h.06l-.12.01h-.03l-.09.02h-.02c-.6.13-1.24.29-1.9.47l-.22.05-.16.05c-.68.19-1.38.39-2.12.63l-.13.04c-.09.03-.19.07-.29.1-.35.12-.69.23-1.05.36-.45.16-.94.36-1.45.57h-.02s-.02.01-.03.02c-.15.06-.31.14-.47.2-.33.13-.66.26-.96.38l-2.14 1.04s.02-.01.03-.02c-.23.11-.46.22-.66.33-.55.27-1.18.64-1.8 1.02l-.49.29c-.06.04-.12.08-.18.13-.3.18-.59.36-.85.52-.66.39-1.67 1.11-2.68 1.88-.02.01-.03.02-.05.04-.01 0-.03.02-.04.03-1.11.84-2.19 1.73-2.77 2.27-.47.45-1.04.96-1.58 1.48l-.01.01c-.34.33-.68.65-.95.96-.01.01-.02.03-.03.04-.21.22-.43.46-.65.71-.2.21-.39.41-.55.6-.05.06-.1.12-.15.19-.32.36-.64.72-.92 1.04l.02-.03-.04.05-.04.06-1.06 1.32c-.11.16-.22.31-.33.47l-.71.91s-.03.04-.04.06c-.04.05-.12.16-.27.36-.47.64-.96 1.37-1.37 2.05-.66 1.05-1.46 2.41-2.29 4.03-.8 1.5-1.49 2.98-2.02 4.44-.64 1.6-1.24 3.32-1.74 5.16-.13.4-.24.86-.35 1.33-.16.66-.31 1.3-.44 1.92l-.07.3s-.3 1.36-.58 3.38c0 .03 0 .06-.01.1 0 .03 0 .06-.01.1 0 .02 0 .05-.01.08v.06c-.15 1.08-.28 2.33-.36 3.66-.09 1.53-.13 2.14-.09 3.52v.25c.06 1.15.13 2.67.19 3.82l.08.9.07.81c0 .06.01.13.02.19l.07.8.08.9.08.9.08.9.08.9.08.9.08.9.08.9.07.79c0 .08.01.16.02.25l.07.76.06.68c.01.15.03.3.04.46l.06.66.04.5c.03.31.05.61.08.92l.03.38.03.29.12 1.41v.1l.02.09.15 1.71c.06.47.12.97.19 1.49.02.11.03.22.04.33.03.24.07.46.1.69.06.42.13.85.2 1.28 0 .04.01.09.02.13.17 1.07.35 2.13.53 3.05.21 1.08.66 2.47.95 3.53.56 2.07 1.64 4.75 2.6 6.67.08.16.16.3.23.46.08.17.17.34.26.51.28.54.54 1.05.81 1.53l.18.33c1.05 1.89 2.13 3.55 4.04 6.02.63.81 1.51 1.86 2.23 2.6 1.51 1.54 2.41 2.42 3.37 3.25l.64.58c3 2.63 6.46 4.75 10.04 6.48.28.14.56.28.81.4.83.39 1.65.75 2.39 1.05.03.01.06.03.08.04l.08.03c.86.35 1.6.63 2.06.81.61.23 1.39.5 2.15.76h.01c.81.28 1.61.53 2.16.69.05.01.08.02.13.04.58.17 1.26.37 1.8.52l.42.11c.49.13.94.25 1.37.36l.22.06c.25.06.54.13.84.21.39.1.79.19 1.23.29.47.11 1.16.26 1.85.41l.17.04c.16.03.34.07.53.11.66.14 1.26.26 1.58.31.25.05.48.09.7.13l1.37.25c.2.03.42.07.65.11.33.05.65.11 1.01.16.18.03.36.06.52.08l2.12.3 4.47.6.78.1.71.08c.23.03.45.05.67.08l.74.09.6.06c.17.02.33.03.49.05h.09c.18.02.36.04.54.05.16.02.32.03.47.05h.02c.69.06 1.37.12 2.05.17.2.01.41.03.64.04.38.03.77.05 1.15.07.13 0 .26.02.38.02l.48.02.76.03h.02c.13 0 .26.01.38.02l.39.02 1.06.03h.46c.24 0 .47 0 .67.01.88.01 1.73 0 2.52-.01h.05c.44 0 .86-.02 1.25-.03.17 0 .33 0 .48-.01l.52-.03c.65-.03 1.18-.06 1.51-.08.78-.05 1.35-.09 2.07-.17.1-.01.21-.02.32-.04.06 0 .12-.01.18-.02.46-.06 1.02-.13 1.54-.19.19-.02.39-.05.61-.07l6.53-.92 6.53-.92 6.53-.92 6.53-.92 6.53-.92 6.53-.92 6.53-.92 6.53-.92 6.53-.92 6.53-.92c.26-.04.49-.08.71-.11l.21-.03c.81-.13 1.42-.23 2.01-.35 1-.19 2.14-.45 3.38-.78.07-.02.13-.03.21-.05l.16-.05c.68-.19 1.38-.39 2.12-.63l.13-.04c.09-.03.19-.07.29-.1.35-.12.69-.23 1.05-.36.08-.03.17-.07.26-.1.08-.03.15-.05.23-.08-.07.02-.15.05-.22.07.53-.2 1.1-.43 1.68-.68.33-.13.66-.26.96-.38l1.43-.7c.29-.14.55-.27.82-.4.04-.02.09-.04.13-.06.04-.02.1-.05.15-.07.08-.04.18-.09.26-.12.02-.01.05-.03.08-.04.71-.36 1.78-.96 3.13-1.84.04-.02.08-.05.12-.07.66-.39 1.69-1.12 2.7-1.89l.03-.02.1-.08s.05-.04.08-.06l.12-.09.03-.02c1-.77 1.95-1.55 2.47-2.05.02-.02.05-.05.08-.07.02-.02.04-.03.06-.05l-.06.05c.76-.72 1.77-1.6 2.46-2.36 0-.01.02-.02.03-.03.35-.36.73-.79 1.11-1.22.12-.13.23-.25.34-.38l.25-.28c.12-.14.23-.27.35-.39l.15-.18c.56-.66.99-1.2 1.25-1.56.1-.14.2-.28.3-.43.01-.02.02-.03.03-.05l.65-.84s.03-.04.05-.06c.04-.05.12-.16.26-.36.47-.64.96-1.37 1.37-2.05 1.59-2.53 3.99-6.85 5.65-12.24.14-.46.28-.92.41-1.39.12-.43.25-.93.37-1.44 0-.04.02-.07.03-.11.17-.7.34-1.41.46-2.02.04-.2.08-.43.12-.66.2-1.01.35-1.97.48-2.89 0-.03.01-.07.02-.1.1-.61.17-1.35.23-2.07l.06-.76c.02-.31.05-.61.07-.88l-.02-.07ZM10.62 94.37l.6.09c-.2-.03-.4-.06-.59-.09h-.01Zm33.46-55.69h-.02.02Zm69.72-9.29h.04-.04ZM88.6 155.97v-.02.02Zm100.59-82.14c0 1.05-.32 2.48.38 3.06v.04l1.55 18.01c.03.33.04.65.06.97.19 4.79-.07 9.16-.84 13.27-.55 2.81-1.33 5.55-2.32 8.18 0 .01 0 .02-.01.04-.15.39-.31.77-.47 1.16-1.53 3.68-3.57 7.27-6.16 10.95-2.83 3.8-6.18 7.13-9.94 9.83-.19.14-.39.27-.59.41-.34.23-.67.46-1.01.68-.21.14-.43.27-.64.4-3.83 2.39-8.04 4.14-12.5 5.11-.92.05-2.12-.09-2.67.49-.02 0-.04 0-.07.01l-65.32 9.18c-.39.06-.78.09-1.17.13-7.74.56-14.88-.87-21.08-4.01-6.36-3.33-11.84-8.47-15.85-14.91-.14-.22-.27-.45-.4-.68-.16-.27-.32-.53-.47-.8a49.781 49.781 0 0 1-3.29-7.11c-.15-.41-.3-.83-.44-1.25-.02-.05-.03-.1-.05-.15-1.16-3.51-1.93-7.25-2.27-11.17v-.14s-.02-.08-.02-.13l-.1-1.16c0-.1-.02-.19-.03-.3l-.62-7.23s0-.09-.01-.14l-.34-3.92c-.03-.36-.06-.7-.09-1.03l-.22-2.53c-.04-.52-.08-.92-.1-1.16v-.13c-.02-.08-.02-.14-.02-.14-2.17-25.13 14.57-48.32 37.16-51.49l65.32-9.18c14.03-1.98 27.17 4.22 35.63 15.23.26.34.51.68.75 1.02.13.18.27.36.39.55.23.33.46.67.68 1.01.17.26.35.52.52.79.13.21.26.42.39.64.26.43.51.85.76 1.29 2.6 4.8 4.48 10.27 5.52 16.31ZM53.86 38.91h-.04.04Zm-3.32-.26h-.03.03Zm60.1-9.22c-.21.01-.41.03-.62.04.2-.01.4-.03.61-.04h.01Zm.87-.03c.2 0 .39-.01.6-.01-.2 0-.4 0-.6.01Zm-98.77 83.06c.15.02.29.04.44.07-.15-.02-.29-.04-.44-.07ZM5.77 93.55h.01-.01ZM27.7 43.43l-.15.09c.62-.3 1.29-.63 1.83-.9-.5.24-1.18.55-1.68.81Z"/>
    <path fill="#FF462D" d="M144.55 36.99c22.58-3.18 42.87 14.81 45.02 39.94.52 6 1.03 12 1.55 18.01 2.17 25.13-14.57 48.32-37.15 51.49l-65.32 9.18c-22.58 3.18-42.87-14.81-45.03-39.94-.52-6-1.03-12-1.55-18.01-2.17-25.13 14.58-48.32 37.16-51.49l65.32-9.18Z"/>
    <path fill="#fff" d="M63.57 69.12c4.68-4.8 13.28-6.85 19.62-8.17 7.93-1.65 14.26-3.25 22.22-4.8 16.99-3.3 34.6-5.04 51.94-3.63 9.13.74 13.54 5.11 15.88 14.76 1.68 6.9 2.46 17.9 2.45 25.85-.01 8.81-3.87 14.03-11.09 15.23l-86.41 13.27c-7.05 1.17-15.19-3.54-16.3-12.06 0 0-2.33-13.98-3.13-23.96-.51-6.4 1.05-12.64 4.81-16.49h.01Z"/>
    <path fill="#CC5200" d="m81.68 134.041-7.45.678a4.269 4.269 0 0 0-3.865 4.639l.175 1.922a4.27 4.27 0 0 0 4.639 3.866l7.45-.678a4.27 4.27 0 0 0 3.864-4.64l-.174-1.922a4.27 4.27 0 0 0-4.64-3.865Z"/>
    <path fill="#FF8419" d="m83.665 133.861-7.45.678a4.27 4.27 0 0 0-3.865 4.639l.175 1.922a4.27 4.27 0 0 0 4.64 3.866l7.449-.678a4.27 4.27 0 0 0 3.865-4.64l-.175-1.922a4.27 4.27 0 0 0-4.64-3.865Z"/>
    <path fill="#B77100" d="m101.296 132.25-7.449.678a4.27 4.27 0 0 0-3.865 4.639l.175 1.922a4.27 4.27 0 0 0 4.64 3.866l7.448-.678a4.271 4.271 0 0 0 3.866-4.64l-.175-1.922a4.27 4.27 0 0 0-4.64-3.865Z"/>
    <path fill="#FFBC31" d="m103.282 132.07-7.45.678a4.27 4.27 0 0 0-3.865 4.64l.175 1.922a4.27 4.27 0 0 0 4.64 3.865l7.449-.678a4.27 4.27 0 0 0 3.865-4.639l-.175-1.922a4.269 4.269 0 0 0-4.639-3.866Z"/>
    <path fill="#E3E3E3" d="M166.23 240.74c0 1.87-26.53 3.39-59.25 3.39s-59.25-1.52-59.25-3.39 26.53-3.39 59.25-3.39 59.25 1.52 59.25 3.39Z"/>
    <path fill="#FFBC31" d="M35.3 16.94c.56 3.61-1.92 6.99-5.53 7.55-3.61.56-6.99-1.92-7.55-5.53-.56-3.61 1.92-6.99 5.53-7.55 3.61-.56 6.99 1.92 7.55 5.53Zm9.82-1.39c-.92.22-1.85-.34-2.09-1.26a14.82 14.82 0 0 0-5.55-8.21 1.74 1.74 0 0 1-.37-2.43 1.74 1.74 0 0 1 2.43-.37c3.37 2.48 5.81 6.09 6.85 10.14.24.93-.32 1.88-1.25 2.12h-.03l.01.01Zm-29.94-4.61a1.738 1.738 0 0 1-1.89-2.61C16.02 3.96 20.48.91 25.56.03c.94-.17 1.85.46 2.02 1.4.17.95-.44 1.89-1.41 2.02-4.09.75-7.72 3.18-9.92 6.72-.25.4-.64.67-1.07.77Zm3.58 21.47c-.51.12-1.07 0-1.51-.34a18.236 18.236 0 0 1-6.48-11.25c-.15-.95.52-1.81 1.44-1.99.95-.15 1.84.5 1.99 1.44a14.73 14.73 0 0 0 5.24 9.1c.74.61.86 1.7.25 2.45-.25.3-.58.51-.94.59h.01Z"/>
    <path fill="#FFBC31" d="M46.73 48.31a1.74 1.74 0 0 1-1.89-.78L27.28 18.86c-.5-.82-.24-1.89.57-2.39.82-.51 1.89-.25 2.39.57L47.8 45.71a1.745 1.745 0 0 1-1.07 2.6Z"/>
    <path fill="#FF8419" d="M25.39 110.51c-.02 5.93-3.4 10.72-7.56 10.71-4.15 0-7.5-4.83-7.48-10.76.02-5.93 3.4-10.72 7.56-10.71 4.15.01 7.5 4.83 7.48 10.76Z"/>
    <path fill="#FF462D" d="M161.35 75.95c0 4.09-2.88 7.4-6.44 7.4-3.56 0-6.43-3.31-6.43-7.4s2.88-7.4 6.43-7.4 6.44 3.31 6.44 7.4Z"/>
    <path fill="#CC5239" d="M20.27 166.19c-11.72-3.69-17.58-9.98-19.05-15.77-3.45-13.6.67-25.58 9.04-42.29 1.16-2.32 4.32-2.75 6.55-1.35 2.23 1.39 2.92 4.25 1.53 6.38-8.72 13.43-11.76 25.79-8.33 33.91 2.26 5.33 7.42 9.04 15.35 10.99 7.68 1.9 15.44.47 23.06-4.27 12.32-7.65 20.57-21.74 22.35-31.7.45-2.5 2.91-4.13 5.49-3.64 2.61.47 4.32 2.91 3.87 5.41-2.53 14.1-13.41 29.62-26.47 37.74-9.75 6.06-20.29 7.93-30.47 5.41-1.02-.25-1.99-.53-2.92-.82Z"/>
    <path fill="#FF462D" d="M85.79 96.79c4.987 0 9.03-4.54 9.03-10.14 0-5.6-4.043-10.14-9.03-10.14-4.987 0-9.03 4.54-9.03 10.14 0 5.6 4.043 10.14 9.03 10.14Z"/>
    <path fill="#CC5239" d="M74.88 113.58c-5.83 1.49-10.02 5.32-11.19 12.46-.73 4.43 2.23 8.84 6.17 10.31l6.11-15.86c5.34-.55 8.22-.14 9.34-2.41 1.31-2.64-3.62-6.23-10.43-4.49v-.01Z"/>
    <path fill="#F5D44D" d="M76.57 112.07c-5.61-2.89-10.12-7.48-12.93-13.26-3.43-7.06-3.9-15.03-1.34-22.44 2.57-7.41 7.87-13.38 14.92-16.81 7.06-3.43 15.03-3.9 22.44-1.34 15.3 5.27 23.45 22.06 18.15 37.36-5.3 15.31-22.06 23.45-37.37 18.15-1.35-.46-2.64-1.02-3.89-1.66h.02Zm23.73-45.95a22.3 22.3 0 0 0-2.92-1.25C85.74 60.84 73 67.03 68.97 78.67a22.195 22.195 0 0 0 1.02 17.07c2.61 5.37 7.15 9.4 12.79 11.35 11.64 4.03 24.39-2.16 28.42-13.8 3.67-10.62-1.16-22.16-10.88-27.16h-.02v-.01Z"/>
    <path fill="#F5D44D" d="m83.63 111.82-13.61 43.13a3.875 3.875 0 0 1-4.87 2.53 3.875 3.875 0 0 1-2.53-4.87l.07-.2 15.96-42.31a2.646 2.646 0 0 1 3.4-1.54c1.32.5 2 1.94 1.59 3.26h-.01Z"/>
    <path fill="#CC5239" d="M74.43 137.47c2.65.41 5.96.82 6.92-1.7s-2.72-3.4-5.76-4.18c-3.04-.79-7.37-1.38-7.86 1.91-.49 3.29 4.92 3.7 6.7 3.97Z"/>
    <path fill="#CC5239" d="M75.77 132.43c2.79.42 6.29.84 7.29-1.81s-2.88-3.56-6.09-4.37-6.8-1.35-7.29 2.1c-.49 3.46 4.23 3.79 6.1 4.08h-.01Z"/>
    <path fill="#CC5239" d="M77.96 127.18c2.56.29 5.77.56 6.59-1.9.82-2.45-2.75-3.15-5.71-3.78-2.96-.63-6.25-1.01-6.58 2.17-.33 3.17 3.98 3.32 5.7 3.51Z"/>
    <path fill="#FF462D" d="M135.98 105.749c.43-.04.85-.23 1.18-.57.75-.76.74-1.97-.01-2.72-.16-.15-3.9-3.81-9.98-3.17-6.08.64-8.88 4.76-9.01 4.93-.61.88-.39 2.08.49 2.69.88.61 2.07.39 2.68-.48.1-.15 2.12-2.87 6.23-3.29 4.11-.42 6.75 1.97 6.86 2.07.43.42 1.01.59 1.55.53l.01.01Z"/>
  </g>
  <defs>
    <clipPath id="a">
      <path fill="#fff" d="M0 0h210.5v244.13H0z"/>
    </clipPath>
  </defs>
</svg>
