<svg xmlns="http://www.w3.org/2000/svg" width="517" height="396" fill="none" viewBox="0 0 517 396">
  <g clip-path="url(#a)">
    <path fill="#E3E3E3" d="M307.72 172.99c-2.11-3.13-1.47-7.29 1.49-9.71 2.91-2.39 7.31-2.5 10.39-.26-.12-.55-.24-1.41-.02-2.39.59-2.68 3.3-4.57 5.9-4.95 4.07-.6 6.84 2.64 7 2.83.19-1.58.81-4.55 3.16-6.73 4.82-4.5 14.64-3.59 18.24 2.24 2.42 3.93 1.03 8.57.65 9.73 3.35-4.84 9.04-5.84 12.05-3.61 2.82 2.1 2.51 6.5 2.48 6.87 2.84-2.43 6.96-3.01 10.34-1.49 3.02 1.37 4.98 4.22 5.11 7.41-25.59 0-51.18.04-76.77.04l-.02.02Zm-.36 219.84c0 1.75-24.87 3.18-55.53 3.18s-55.53-1.43-55.53-3.18c0-1.75 24.87-3.18 55.53-3.18s55.53 1.43 55.53 3.18Zm133.6 0c0 1.75-24.87 3.18-55.53 3.18s-55.53-1.43-55.53-3.18c0-1.75 24.87-3.18 55.53-3.18s55.53 1.43 55.53 3.18Z"/>
    <path fill="#ADAFB5" d="M291.45 234.25h-10.49v156.5h10.49v-156.5Z"/>
    <path fill="#ADAFB5" d="M295.85 378.07h-19.28v12.68h19.28v-12.68Z"/>
    <path fill="#888" d="M303.6 388.9h-34.77v5.2h34.77v-5.2Z"/>
    <path fill="#ADAFB5" d="M430.33 234.25h-10.49v156.5h10.49v-156.5Z"/>
    <path fill="#ADAFB5" d="M434.72 378.07h-19.28v12.68h19.28v-12.68Z"/>
    <path fill="#888" d="M442.47 388.9H407.7v5.2h34.77v-5.2Z"/>
    <path fill="#E5883D" d="M463.59 306.61H247.7v41.99h215.89v-41.99Z"/>
    <path fill="#545252" d="M463.59 315.81H247.7v23.61h215.89v-23.61Z"/>
    <path fill="#F6CC46" d="M404.04 348.6h22.33l37.22-41.99h-22.33l-37.22 41.99Zm-52.12 0h22.33l37.23-41.99h-22.33l-37.23 41.99Zm-52.11 0h22.33l37.23-41.99h-22.33l-37.23 41.99Zm-52.11 0h22.33l37.22-41.99h-22.33L247.7 348.6Z"/>
    <path fill="#E5883D" d="M463.59 245.34H247.7v42h215.89v-42Z"/>
    <path fill="#545252" d="M463.59 254.53H247.7v23.61h215.89v-23.61Z"/>
    <path fill="#F6CC46" d="M404.04 287.34h22.33l37.22-42h-22.33l-37.22 42Zm-52.12 0h22.33l37.23-42h-22.33l-37.23 42Zm-52.11 0h22.33l37.23-42h-22.33l-37.23 42Zm-52.11 0h22.33l37.22-42h-22.33l-37.22 42Z"/>
    <path fill="#E3E3E3" d="M350.03 52.02c-4.57-6.77-3.17-15.76 3.23-20.99 6.3-5.16 15.81-5.41 22.47-.56-.27-1.2-.51-3.05-.04-5.15 1.28-5.79 7.13-9.89 12.76-10.72 8.79-1.3 14.78 5.71 15.12 6.12.41-3.42 1.75-9.83 6.83-14.57 10.43-9.73 31.68-7.77 39.45 4.86 5.22 8.49 2.22 18.55 1.4 21.05 7.23-10.48 19.56-12.63 26.05-7.8 6.1 4.54 5.43 14.05 5.35 14.88 6.15-5.26 15.07-6.52 22.35-3.22 6.53 2.95 10.78 9.14 11.06 16.03-55.34 0-110.68.09-166.04.09v-.02h.01Z"/>
    <path fill="#CC533A" d="M334.33 96.19c-6.34-.26-8.75-4.66-9.77-6.44-1.02-1.78-1.6-6.35.81-6.71 2.42-.37 2.54 1.54 3.04 3.64s2.41 2 3.05 1.66c.72-.38.62-1.87.42-3.2-.41-2.62 4.19-2.65 7.66-2.33 3.47.32 6.95 1.41 6.49 4.35-.46 2.93-1.85 5.73-4.22 7.49-2.37 1.75-4.74 1.66-7.48 1.55v-.01Z"/>
    <path fill="#CC533A" d="M334.63 88.91c-2.73.31-3.02-5.7-3.38-8.04-.36-2.34-1.14-6.51 1.4-6.97 2.55-.46 3.14 3.35 3.41 5.4.27 2.05 2.27 9.18-1.43 9.61Z"/>
    <path fill="#CC533A" d="M339.49 87.05c-2.74.13-2.52-5.84-2.75-8.19-.22-2.35-.9-6.61 1.67-6.91 2.57-.31 3.13 3.49 3.28 5.55.14 2.06 1.21 9.37-2.21 9.54l.01.01Z"/>
    <path fill="#CC533A" d="M343.1 92.45c-1.99-.26-1.16-5.97-1.06-7.35.1-1.39.48-3.02.52-4.38.04-1.35 0-2.69.21-3.93.22-1.24.72-2.44 2.07-2.46 1.34-.01 1.77 1.12 2.05 2.32.28 1.2.28 2.11.26 3.52-.01 1.43-.16 3.38-.52 4.97-.37 1.59-1.55 7.56-3.53 7.29v.02Zm-48.46 36.77a2.812 2.812 0 0 1-2.12-3.05c.17-1.55 1.56-2.67 3.1-2.49 24.52 2.72 37.04-14.61 40.32-30.27a2.823 2.823 0 0 1 3.33-2.18c1.58.35 2.5 1.81 2.18 3.33-4.05 19.39-19.99 37.65-46.45 34.72-.13-.02-.25-.04-.37-.07l.01.01Z"/>
    <path fill="#E5883D" d="M158.39 144.1c.4 5.92-2.65 10.93-6.8 11.21-4.14.27-7.81-4.3-8.21-10.22-.4-5.92 2.65-10.93 6.8-11.21 4.14-.27 7.81 4.3 8.21 10.22Zm15.6-57.24a1.64 1.64 0 0 1-1.77-.73l-16.46-26.88c-.47-.77-.22-1.77.54-2.24.77-.48 1.77-.23 2.24.54L175 84.43c.47.77.22 1.77-.54 2.24-.15.09-.31.16-.47.2v-.01Z"/>
    <path fill="#B72C25" d="M303.26 131.79v-.48c0-.55-.04-1.2-.08-1.84.02.2.03.39.05.57-.04-.58-.09-1.35-.12-1.94v-.07c-.09-1.02-.18-2.03-.26-3.05v-.05l-.02-.16c-.08-.98-.17-1.96-.25-2.93v-.07c-.18-2.04-.35-4.08-.53-6.12v-.04l-.01-.1c-.09-1-.17-2-.26-3 0-.04 0-.08-.01-.12v-.06c-.16-1.64-.26-2.46-.48-3.6-.01-.08-.02-.15-.04-.23-.06-.31-.12-.62-.18-.92-.09-.49-.2-1.03-.33-1.6-1.37-6.57-4.72-14.49-12.5-20.91 0 0-.02-.02-.03-.02-.02-.02-.04-.03-.06-.05-.62-.54-1.04-.9-1.63-1.34-.11-.09-.23-.18-.34-.27-.1-.08-.2-.15-.3-.22-.32-.24-.62-.46-.92-.67-.06-.05-.12-.09-.19-.14l.11.08c-.23-.16-.45-.31-.66-.46a.55.55 0 0 1-.09-.07l-.12-.07c-.88-.59-1.61-1.03-2.11-1.32-.37-.22-1.3-.75-2.6-1.4-.01 0-.03-.02-.05-.02l-.06-.03c-.56-.28-1.18-.57-1.87-.87l-.06-.03c-.07-.03-.15-.07-.23-.1-.57-.25-1.17-.5-1.81-.75l-1.82-.68c-.09-.03-.19-.07-.29-.1h-.01c-.15-.05-.29-.1-.45-.15-.09-.03-.19-.07-.28-.1.05.02.09.03.14.05-.2-.07-.39-.13-.58-.19-3.34-1.12-6.59-1.89-9.54-2.44-.38-.07-.74-.14-1.1-.21-.12-.02-.23-.04-.34-.06l-.2-.03c-.23-.04-.44-.08-.66-.11l-.93-.16-.98-.15c-.55-.08-1.28-.18-1.83-.26l-3.85-.52s-.06 0-.08-.01h.01-.03c-.43-.06-.94-.12-1.4-.18-.11-.01-.22-.03-.32-.04-.03 0-.06 0-.09-.01l-.6-.06-1.1-.12h-.12c-.25-.04-.53-.06-.81-.09-.3-.03-.59-.05-.87-.08-.07 0-.14-.01-.2-.02l-.22-.02c-.52-.04-1.02-.07-1.49-.1h-.12c-1.37-.08-2.55-.12-3.51-.14h-2.12c-.42 0-.79.01-1.15.02h.16c-.17 0-.41.01-.58.01h-.24c-.38.01-.72.03-1.02.04-.29.01-.55.03-.77.04-1.02.06-1.55.1-2.44.2l-.22.02-1.9.23-5.63.79-5.63.79-5.63.79-5.63.79-5.63.79-5.63.79-.69.1-4.94.69-5.63.79-5.63.79-5.63.79c-.24.04-.51.08-.8.12-.66.1-1.17.19-1.65.29-.37.07-.75.15-1.16.24h.05l-.1.01h-.02l-.08.02h-.02c-.52.12-1.07.25-1.64.4l-.19.05-.14.04c-.58.16-1.19.34-1.83.55l-.11.03c-.08.03-.17.06-.25.09-.3.1-.6.2-.9.31-.39.14-.81.31-1.25.49h-.01l-.02.02c-.13.06-.27.12-.4.17-.29.11-.57.23-.82.33l-1.85.9s.02-.01.03-.02c-.2.1-.4.19-.57.28-.48.24-1.02.55-1.55.88l-.43.25c-.06.04-.1.07-.16.11-.26.16-.5.31-.73.45-.57.34-1.44.96-2.31 1.62-.01 0-.03.02-.04.03-.01 0-.02.02-.03.03-.96.73-1.89 1.49-2.38 1.96-.4.38-.9.83-1.37 1.27l-.01.01c-.3.28-.58.56-.82.82l-.03.03c-.18.19-.37.39-.56.61-.17.18-.33.36-.48.52-.05.05-.09.11-.13.16-.28.31-.55.62-.79.89l.02-.03-.04.04-.04.05-.91 1.14c-.1.14-.19.27-.28.41l-.61.79s-.03.04-.04.05c-.03.05-.11.14-.23.31-.4.55-.83 1.18-1.18 1.77-.57.91-1.26 2.08-1.98 3.48-.69 1.3-1.28 2.57-1.75 3.83a41.4 41.4 0 0 0-1.5 4.45c-.18.55-.32 1.24-.47 1.89-.07.28-.14.57-.2.85l-.08.33s-.28 1.25-.52 3.08c0 .02 0 .05-.01.07v.05a41.3 41.3 0 0 0-.31 3.16c-.08 1.32-.11 1.84-.07 3.03v.22c.05.99.11 2.3.16 3.29l.07.78.07.78.07.78.07.78.07.78.07.78.07.78.07.78.07.78.07.78.07.78.06.72v.07l.07.76.07.78.07.78.07.78.07.78.07.78.07.78.07.78c.05.4.1.83.17 1.28.01.1.02.19.04.29l.09.6c.05.36.11.73.17 1.09 0 .04.01.08.02.12.15.93.31 1.84.46 2.63.18.93.57 2.13.81 3.04.48 1.79 1.41 4.1 2.25 5.75l.2.4c.07.15.15.29.22.44.24.47.47.9.7 1.32.05.1.1.19.16.29.9 1.63 1.84 3.06 3.48 5.19.54.7 1.31 1.61 1.92 2.24 1.3 1.33 2.08 2.09 2.9 2.8.19.17.38.34.55.5 2.59 2.27 5.57 4.1 8.66 5.59.24.12.48.24.7.34.71.34 1.42.64 2.06.91.02.01.05.02.07.03l.07.03c.74.3 1.38.54 1.78.7.52.2 1.2.43 1.85.65h.01c.7.24 1.39.46 1.86.6l.11.03c.5.15 1.09.32 1.55.45l.36.09c.42.12.81.22 1.18.31l.19.05c.23.06.5.12.78.19.32.08.65.16 1 .24.41.1 1 .23 1.6.35l.15.03c.14.03.3.06.46.09.57.12 1.08.22 1.36.27.22.04.42.08.61.11l1.17.21c.17.03.36.06.56.09.28.05.56.09.86.14.16.03.31.05.45.07.55.08 1.28.18 1.83.26l3.85.52.67.09.6.07c.2.02.4.05.59.07l.63.08c.16.02.34.04.52.05.14.01.27.03.4.04.07 0 .14.01.21.02.14.01.28.03.41.04l.35.03h.01c.6.06 1.19.1 1.78.15.17.01.35.02.54.04l.99.06c.11 0 .23.01.33.02l.41.02.66.03h.01c.11 0 .22.01.33.01h.34l.91.04h.4c.2 0 .4 0 .58.01.76.01 1.5 0 2.19-.01h.03c.38 0 .75-.02 1.09-.03.14 0 .28 0 .4-.01l.46-.02c.56-.03 1.01-.05 1.3-.07.72-.04 1.22-.08 1.9-.16.05 0 .1-.01.15-.02.05 0 .12-.01.17-.02l1.86-.23 5.63-.79 5.63-.79 5.63-.79 5.63-.79 5.63-.79 5.63-.79 5.63-.79 5.63-.79 5.63-.79 5.63-.79c.25-.04.52-.08.81-.13.65-.1 1.15-.19 1.63-.28.89-.17 1.9-.39 3-.69.06-.02.11-.03.18-.04l.14-.04c.59-.16 1.19-.34 1.83-.55l.11-.03c.08-.03.17-.06.25-.09.3-.1.6-.2.91-.31.07-.03.15-.06.22-.09.07-.02.13-.05.2-.07-.06.02-.13.04-.18.06.46-.17.95-.37 1.45-.59.29-.11.57-.23.82-.33l1.97-.96s.05-.02.08-.04.09-.04.12-.06l.22-.11s.05-.03.07-.04c.62-.31 1.53-.82 2.7-1.58.03-.02.07-.04.1-.06.57-.34 1.45-.97 2.33-1.63l.02-.02.09-.07s.04-.03.06-.05l.11-.08.03-.02c.86-.66 1.68-1.34 2.13-1.77.02-.02.05-.04.07-.06.02-.01.03-.03.05-.04l-.05.04c.65-.62 1.53-1.38 2.12-2.03l.03-.03c.3-.31.63-.68.96-1.05l.29-.32c.08-.08.15-.17.22-.25.1-.12.2-.23.29-.34.04-.05.09-.1.13-.15.49-.57.86-1.04 1.08-1.34.1-.13.18-.27.28-.4l.57-.73s.03-.03.04-.05c.03-.04.11-.14.23-.31.4-.55.83-1.18 1.18-1.76 1.37-2.18 3.44-5.91 4.87-10.56.12-.39.24-.8.35-1.2.25-.91.56-2.14.75-3.07.05-.23.1-.49.14-.75l.09-.55c.07-.42.14-.82.2-1.22.03-.21.07-.42.1-.61.16-.95.22-2.24.31-3.2.03-.33.05-.71.06-1.1.03-.57.04-1.03.02-1.68l-.08-.12Zm-154.77-3.94c.17.03.34.05.52.08-.17-.03-.34-.05-.51-.08h-.01Zm-1.35-.2c.16.02.32.05.49.07-.16-.02-.32-.05-.48-.07h-.01Zm28.85-48.02h-.02.02Zm60.15-8.01h-.03.03Zm.3 0h.03-.03Zm-22.06 109.15v-.01.01Zm.01-.02v-.01.01Zm86.74-70.81c0 .91-.27 2.14.32 2.64v.04l1.34 15.53c.02.28.03.56.05.84.16 4.13-.06 7.89-.72 11.44-.1.51-.2 1.03-.32 1.54-.44 1.89-1 3.73-1.68 5.51 0 0 0 .02-.01.03-.13.34-.27.67-.4 1-1.32 3.17-3.08 6.27-5.31 9.45-2.44 3.28-5.33 6.15-8.57 8.48-.17.12-.34.23-.51.35-.29.2-.58.4-.88.59-.18.12-.37.23-.55.35-3.31 2.06-6.93 3.57-10.78 4.4-.79.04-1.83-.08-2.3.42h-.06l-56.33 7.92v.04-.04c-.34.05-.67.08-1.01.11-6.67.48-12.83-.75-18.18-3.46-5.49-2.87-10.21-7.3-13.67-12.86-.12-.19-.23-.39-.35-.58-.14-.23-.27-.46-.41-.7a42.969 42.969 0 0 1-2.83-6.13c-.13-.36-.26-.71-.38-1.08-.01-.04-.03-.08-.04-.13-1-3.03-1.67-6.26-1.96-9.63l-1.34-15.53c-1.87-21.67 12.57-41.67 32.05-44.4l56.33-7.92c12.1-1.7 23.43 3.64 30.73 13.13.22.29.44.59.65.88.11.16.23.31.34.47.2.29.4.58.59.87.15.23.3.45.44.68.12.18.23.36.34.55.22.37.44.74.65 1.11 2.24 4.14 3.86 8.86 4.76 14.07v.02Zm-60.38-38.03c.76.08 1.54.16 2.33.27-.8-.11-1.57-.19-2.33-.27Zm-57.69 7.79h-.01.01Zm-1.5-.1h-.02.02Zm52.57-7.98c.17 0 .34 0 .52-.01-.18 0-.34 0-.51.01h-.01Zm-82.81 71.98c-.24-.03-.49-.07-.73-.1.24.03.48.07.73.1Zm.45.06c.49.07.99.14 1.5.21l-1.51-.21h.01Zm-10.98-17.16h.01-.01Zm5.35 16.3h.01-.01Zm15.72-59.07s-.09.05-.13.08c.53-.26 1.11-.54 1.58-.77-.43.21-1.02.47-1.45.7v-.01Z"/>
    <path fill="#FF462D" d="M262.63 78.17c19.48-2.74 36.97 12.77 38.83 34.44.45 5.18.89 10.35 1.34 15.53 1.87 21.67-12.56 41.67-32.04 44.4l-56.33 7.92c-19.48 2.74-36.97-12.77-38.83-34.44-.45-5.18-.89-10.35-1.34-15.53-1.87-21.67 12.57-41.67 32.05-44.4l56.33-7.92h-.01Z"/>
    <path fill="#fff" d="M192.79 105.88c4.04-4.14 11.46-5.91 16.92-7.04 6.84-1.42 12.3-2.8 19.16-4.14 14.65-2.85 29.84-4.34 44.79-3.13 7.87.64 11.67 4.4 13.7 12.73 1.45 5.95 2.12 15.44 2.12 22.29 0 7.6-3.33 12.1-9.57 13.13l-74.52 11.45c-6.08 1.01-13.1-3.05-14.06-10.4 0 0-2.01-12.05-2.7-20.66-.44-5.52.91-10.9 4.15-14.22l.01-.01Z"/>
    <path fill="#CC5200" d="m208.416 161.856-6.434.585a3.681 3.681 0 0 0-3.331 3.999l.151 1.663a3.68 3.68 0 0 0 3.999 3.331l6.433-.585a3.68 3.68 0 0 0 3.331-3.999l-.151-1.663a3.68 3.68 0 0 0-3.998-3.331Z"/>
    <path fill="#FF8419" d="m210.134 161.701-6.433.585a3.68 3.68 0 0 0-3.332 3.998l.152 1.664a3.68 3.68 0 0 0 3.998 3.331l6.434-.586a3.68 3.68 0 0 0 3.331-3.998l-.151-1.663a3.68 3.68 0 0 0-3.999-3.331Z"/>
    <path fill="#B77100" d="m225.337 160.319-6.434.585a3.68 3.68 0 0 0-3.331 3.999l.151 1.663a3.68 3.68 0 0 0 3.999 3.331l6.433-.585a3.681 3.681 0 0 0 3.331-3.999l-.151-1.663a3.68 3.68 0 0 0-3.998-3.331Z"/>
    <path fill="#FFBC31" d="m227.055 160.153-6.433.586a3.68 3.68 0 0 0-3.332 3.998l.152 1.663a3.68 3.68 0 0 0 3.998 3.332l6.433-.586a3.68 3.68 0 0 0 3.332-3.998l-.152-1.663a3.68 3.68 0 0 0-3.998-3.332Z"/>
    <path fill="#FF462D" d="M212.76 122.39c3.065 0 5.55-2.874 5.55-6.42s-2.485-6.42-5.55-6.42-5.55 2.874-5.55 6.42 2.485 6.42 5.55 6.42Zm61.75-14.73c0 3.32-2.48 6.01-5.55 6.01s-5.55-2.69-5.55-6.01 2.48-6.01 5.55-6.01 5.55 2.69 5.55 6.01Zm-26.58 30.53c-7.11.62-10.21-5.59-10.87-8.95-.21-1.09.5-2.14 1.59-2.34 1.08-.23 2.13.5 2.34 1.58.12.63 1.4 6.17 6.58 5.72 5.18-.45 5.08-7.19 5.07-7.48-.03-1.11.85-2.03 1.94-2.06 1.11-.03 2.03.83 2.06 1.93.12 3.74-1.55 10.97-8.73 11.59l.02.01Z"/>
    <path fill="#FF8419" d="M158.02 144.5c.36 5.44-2.44 10.06-6.25 10.31s-7.19-3.96-7.55-9.4c-.36-5.44 2.44-10.06 6.25-10.31s7.19 3.96 7.55 9.4Z"/>
    <path fill="#FFBC31" d="M162.5 57.44a5.713 5.713 0 0 1-4.77 6.51 5.713 5.713 0 0 1-6.51-4.77 5.713 5.713 0 0 1 4.77-6.51 5.713 5.713 0 0 1 6.51 4.77Zm8.47-1.21c-.79.19-1.6-.29-1.8-1.09a12.72 12.72 0 0 0-4.79-7.08 1.51 1.51 0 0 1-.32-2.1 1.51 1.51 0 0 1 2.1-.32c2.91 2.14 5.01 5.25 5.91 8.74.21.8-.28 1.62-1.08 1.83h-.03l.01.02Zm-25.81-3.98c-.38.09-.79.03-1.15-.18-.71-.44-.92-1.36-.48-2.07 2.35-3.77 6.19-6.4 10.57-7.16.81-.15 1.6.4 1.74 1.21.15.82-.38 1.63-1.22 1.74-3.53.65-6.66 2.74-8.55 5.8-.22.34-.55.58-.92.66h.01Zm3.09 18.52c-.44.1-.92 0-1.3-.29a15.729 15.729 0 0 1-5.59-9.7c-.13-.82.45-1.56 1.24-1.72.82-.13 1.59.43 1.72 1.24.49 3.08 2.1 5.87 4.52 7.85.64.53.74 1.47.22 2.11-.22.26-.5.44-.81.51Z"/>
    <path fill="#FFBC31" d="M172.36 84.48c-.61.15-1.28-.1-1.63-.67l-15.14-24.72c-.43-.71-.21-1.63.49-2.06.71-.44 1.63-.22 2.06.49l15.14 24.72c.43.71.21 1.63-.49 2.06-.14.09-.28.15-.43.18Z"/>
    <path fill="#CC533A" d="M129.94 209.79a4.02 4.02 0 0 1-3.63-2.32c-6.66-14.39-6.71-31.56-.15-45.94 4.91-10.77 13.04-18.49 22.31-21.17 2.11-.61 4.33.61 4.94 2.73.61 2.12-.61 4.33-2.73 4.94-7.02 2.04-13.32 8.15-17.26 16.81-5.6 12.28-5.56 26.97.14 39.28.92 2 .06 4.37-1.95 5.3-.54.26-1.11.36-1.67.36v.01Z"/>
    <path fill="#CC533A" d="m121.9 192.29 5.62-4.76a3.307 3.307 0 1 1 4.92 4.42l-4.52 6.88 11.26 11.74s-7.04 6.15-15.06-2.05c-6.9-7.05-2.22-16.24-2.22-16.24v.01Z"/>
    <path fill="#545252" d="m55.81 131.43 152.84 138.49a3.48 3.48 0 0 0 4.92-.25 3.48 3.48 0 0 0-.25-4.92L61.87 127.52c-1.44 1.84-3.46 3.26-6.05 3.92l-.01-.01Z"/>
    <path fill="#CC533A" d="m131.81 203.32 5.67-6.3c1.38-1.53 1.39-3.76.03-4.99-1.36-1.22-3.57-.97-4.95.55l-5.67 6.3c-1.38 1.53-1.39 3.76-.03 4.98 1.36 1.22 3.57.97 4.95-.55v.01Z"/>
    <path fill="#CC533A" d="m136.04 205.69 5.88-4.71a3.308 3.308 0 0 0 .52-4.65 3.308 3.308 0 0 0-4.65-.52l-5.88 4.71a3.308 3.308 0 0 0-.52 4.65 3.308 3.308 0 0 0 4.65.52Z"/>
    <path fill="#CC533A" d="m139.51 210.31 5.92-4.66a3.318 3.318 0 0 0 .55-4.65 3.318 3.318 0 0 0-4.65-.55l-5.92 4.66a3.309 3.309 0 0 0-.55 4.65 3.309 3.309 0 0 0 4.65.55Z"/>
    <path fill="#FF462D" d="M73.18 172.98 31.33 174 1.02 145.14 0 103.28l28.87-30.32 41.84-1.02 30.31 28.87 1.02 41.85-28.86 30.32Z"/>
    <path fill="#fff" d="m71.58 169.38-38.83.95-28.13-26.79-.95-38.84 26.79-28.13 38.83-.95 28.12 26.8.95 38.84-26.79 28.13.01-.01Z"/>
    <path fill="#FF462D" d="m70.18 166.23-36.19.88-26.22-24.97-.88-36.2 24.97-26.23 36.19-.88 26.22 24.97.88 36.2-24.97 26.23Z"/>
    <path fill="#fff" d="m62.67 106.25 9.84 10.34c4.49 4.72 4.3 12.19-.42 16.68l-9.06 8.62c-3.1 2.95-7.38 3.87-11.23 2.83l-.03.08-18.85-6.71c-1.52-.54-2.31-2.29-1.74-3.89.57-1.59 2.28-2.45 3.81-1.9l5.89 2.1c1.1.39 1.98-.96 1.18-1.81l-15.54-16.34c-1.13-1.19-1.05-3.11.17-4.28 1.23-1.17 3.15-1.15 4.28.04l11.1 11.67c.53.56 1.42.59 1.99.05.57-.54.6-1.43.06-2l-12.8-13.45c-1.13-1.19-1.05-3.11.17-4.28 1.23-1.17 3.15-1.15 4.28.04l12.83 13.49a1.41 1.41 0 1 0 2.05-1.94l-11.14-11.71c-1.13-1.19-1.05-3.12.17-4.28 1.23-1.16 3.15-1.15 4.28.04l11.18 11.75a1.41 1.41 0 1 0 2.05-1.94l-8.23-8.65c-1.09-1.15-.98-3.04.25-4.2 1.23-1.17 3.12-1.18 4.21-.04l9.23 9.7.02-.01Z"/>
  </g>
  <defs>
    <clipPath id="a">
      <path fill="#fff" d="M0 0h516.07v396H0z"/>
    </clipPath>
  </defs>
</svg>
