<svg xmlns="http://www.w3.org/2000/svg" width="338" height="350" fill="none" viewBox="0 0 338 350">
  <g clip-path="url(#a)">
    <path fill="#CC5239" d="M255.08 281.14c1.09 0 2.16-.5 2.85-1.45 17.79-24.44 6.98-53.48-2.46-62.9a3.53 3.53 0 0 0-4.98 0 3.53 3.53 0 0 0 0 4.98c6.97 6.95 17.37 32.3 1.74 53.76a3.529 3.529 0 0 0 .78 4.92c.6.44 1.33.67 2.07.67v.02Z"/>
    <path fill="#CC5239" d="M259.28 273.89c-4.24-3.12-8.76-5.22-13.35-1.16s-7.3 7.8-6.74 9.29c.57 1.5 3.38 1.96 4.87.42 1.49-1.54 2.91-2.94 3.85-2.03.94.91.23 3.29-1.41 4.99-1.64 1.7-7.14 4.65-5.62 6.53.76.93 2.37.99 4.22.44h-.02c-.13.92.29 2.54 3.14 2.25.63-.06 1.31-.32 1.99-.66.66 1.46 2.63 2.08 4.95.74 2.35-1.36 4.93-4.04 6.99-8.81 2.06-4.77.12-9.79-2.89-12.01h.02v.01Z"/>
    <path fill="#952D20" stroke="#982E21" stroke-miterlimit="10" stroke-width=".1" d="M220.74 143.32c.13.05.27.11.39.15-.12-.05-.26-.11-.39-.15Zm-106.14-3.17-.26.03.75-.08-.49.05Zm-12.99 3.39h-.02l.08-.03-.06.03Zm-12.94 8.71c-.32.32-.63.62-.93.93.66-.64 1.47-1.42 2.1-2.02-.35.33-.82.76-1.17 1.1v-.01Z"/>
    <path fill="#B72C25" d="M262.25 193.03c.04-1.42.05-2.12-.02-3.17v-.15c-.02-.95-.08-1.48-.2-2.69v.04c0-.07-.01-.13-.02-.2-.03-.32-.07-.64-.11-.94v-.01l-.09-.64c0-.07-.02-.13-.03-.2-.22-1.52-.6-3.36-1.05-4.95-.01-.05-.03-.1-.04-.15-.09-.32-.18-.63-.28-.92-2.76-9.25-8.26-16.15-14.13-21.24-5.02-4.53-10.63-7.89-15.86-10.18-.23-.11-.46-.22-.68-.33a.714.714 0 0 1-.15-.08c-.06-.03-.13-.06-.19-.09-.63-.3-1.18-.55-1.64-.76l-3.28-1.48c-.91-.41-1.79-.79-2.64-1.14a.201.201 0 0 1-.08-.04c-.37-.15-.73-.3-1.09-.44.01 0 .02 0 .03.01 0 0 .04.01.05.02a.689.689 0 0 1-.08-.03 58.735 58.735 0 0 0-1.41-.54.689.689 0 0 1-.08-.03c-.16-.06-.31-.11-.47-.17 0 0-.02 0-.03-.01h-.03c-.63-.24-1.25-.46-1.83-.66-.08-.03-.17-.05-.25-.08-.69-.24-1.35-.45-1.98-.64-.15-.05-.3-.09-.44-.13-.33-.1-.65-.2-.96-.28l-.25-.07c-.18-.05-.38-.11-.58-.16l-.45-.12c-.4-.11-.8-.21-1.15-.3l-.6-.14-.14-.03c-.44-.11-.83-.2-1.17-.28-.71-.16-1.55-.33-2.37-.48-.03 0-.07-.01-.1-.02l-.18-.03c-1.24-.22-2.4-.39-2.93-.45-.08 0-.19-.02-.27-.03-.61-.07-1.16-.13-1.68-.17l.52.04c-1.55-.13-2.2-.19-3.27-.21-.06 0-.13 0-.19-.01-.64-.03-1.46-.01-2.14 0h-.19.94c-.3 0-.69 0-.99.01l-7.79.17-7.79.17-7.79.17-7.79.17-7.79.17-7.79.17-7.79.17-7.79.17-7.79.17-7.79.17c-.43.02-.92.04-1.41.07h-.14c-.84.05-1.71.12-2.49.2l.26-.03-.87.09c-1.06.12-2.46.34-3.49.58-.8.18-1.49.35-2.12.51l.42-.11-.49.13s-.03.01-.05.02c-1.77.45-3.05.87-4.87 1.62-.5.2-.99.41-1.5.63.08-.04.15-.07.22-.11l-.83.38c-.77.34-1.7.83-2.6 1.33-.03.02-.06.03-.09.05h-.01c.06-.03.13-.07.18-.1-.1.05-.23.13-.33.18-.24.13-.5.28-.76.44-.96.56-1.78 1.07-2.1 1.3-.31.23-.68.47-1.05.73.11-.08.22-.16.32-.23-.12.09-.28.2-.41.28-.05.03-.09.07-.13.1-.5.35-1 .7-1.4 1.04 0 0-.02.01-.02.02-.77.6-1.73 1.45-2.48 2.07l-1.2 1.16c-.33.31-.64.61-.93.9-.07.07-.15.14-.21.21l-.01.01c-.24.24-.49.51-.75.8-.99 1.06-2.06 2.36-3.14 3.84-.1.14-.21.28-.31.4-.49.64-1.03 1.5-1.51 2.25-.07.11-.14.2-.2.31-.04.06-.08.13-.12.19-.01.02-.99 1.53-2.08 3.74 0 0 0 .01-.01.02-.32.66-.66 1.37-.98 2.12-.16.39-.34.83-.52 1.28 0 .02-.02.04-.02.06-.24.61-.48 1.24-.67 1.78-.07.2-.14.41-.21.63-.29.87-.54 1.7-.75 2.5l-.03.1c-.17.55-.31 1.22-.45 1.87-.04.19-.08.38-.12.56-.06.31-.12.61-.18.88-.23 1.01-.39 2.39-.5 3.42-.11 1.04-.17 2.43-.24 3.47l-.08 2.68-.08 2.68-.08 2.68-.08 2.68-.08 2.68-.08 2.68-.08 2.68-.08 2.68-.08 2.68-.08 2.68c-.02 1.36.02 3.17.1 4.52.06.99.23 2.29.36 3.27.26 1.93.84 4.47 1.44 6.33.04.12.08.25.12.37.43 1.39.93 2.73 1.48 4.01.04.1.08.2.13.3 6.36 14.53 19.58 22.34 27.41 26.21l.24.12c.53.26 1.03.5 1.5.73.14.07.28.13.42.2.46.22.9.42 1.29.6l3.28 1.48c.91.4 2.06.9 3.37 1.43.07.03.15.06.21.09l.21.08c1.12.45 2.34.91 3.63 1.35l1.84.61c.62.2 1.46.45 2.09.64l.37.1c.43.12.84.23 1.21.33l.28.08c.21.05.44.11.69.17.58.14 1.1.27 1.59.38.5.12 1.16.26 1.9.4h.05s.04.02.06.02c.66.12 1.39.25 2.16.36.16.03.32.05.47.08l.33.04a49.769 49.769 0 0 0 2.91.32c.84.07 1.45.11 2.14.13.16 0 .33.02.48.02.74.03 1.74 0 2.48.01l2.64-.06c.44 0 .87-.02 1.25-.03l3.89-.08 7.79-.17 7.79-.17 7.79-.17 7.79-.17 7.79-.17 7.79-.17 7.79-.17c1.17-.03 2.53-.05 3.89-.08l3.89-.08h.29c.23-.01.46-.02.71-.02l1.81-.04c.36 0 .72-.02 1.08-.02l3.89-.08c.43-.02.91-.04 1.41-.07h.14c.41-.03.82-.05 1.23-.09.38-.02.75-.05 1.08-.08.12-.01.24-.03.36-.05h.09c.07 0 .15-.01.22-.02h.05s.05-.01.07-.01c1.06-.12 2.46-.34 3.49-.58 3.17-.73 4.66-1.15 7.12-2.16.47-.19.93-.38 1.4-.59.03-.01.06-.03.1-.04.2-.09.39-.17.6-.26.77-.34 1.7-.83 2.61-1.33a.3.3 0 0 1 .08-.04l.16-.08c.24-.13.5-.28.76-.44.97-.56 1.78-1.07 2.11-1.3.19-.14.41-.29.63-.44.08-.05.15-.1.22-.15.63-.43 1.31-.9 1.82-1.33 0 0 .02-.01.02-.02 0 0 .02-.01.02-.02 2.25-1.71 4.18-3.55 5.83-5.4.05-.06.11-.12.16-.18.24-.27.48-.55.71-.82.23-.28.47-.56.71-.86l.21-.27c.36-.46.73-.93 1.09-1.43.1-.14.21-.27.3-.4.49-.64 1.03-1.5 1.51-2.24.07-.11.14-.21.2-.31.04-.06.08-.13.12-.19.55-.83 1.18-2 1.64-2.88l.28-.54v-.03c.12-.22.23-.43.33-.65.3-.61.59-1.25.82-1.79.06-.14.12-.29.18-.44.02-.04.04-.09.06-.12l-.05.12c.11-.27.22-.55.34-.84 0-.02.02-.04.02-.06.24-.61.48-1.24.67-1.78.07-.19.14-.41.21-.63.22-.66.41-1.29.59-1.92l.06-.2.03-.11c.02-.09.05-.18.07-.27l.03-.1c.17-.55.31-1.22.45-1.87l.12-.57v-.05l.08-.34c-.02.09-.05.18-.07.28.06-.27.11-.53.16-.77.08-.35.15-.74.21-1.15.1-.6.17-1.08.24-1.78l.06-.5c.11-1.03.17-2.42.24-3.46l.08-2.6v-.08l.08-2.68.08-2.68.08-2.68v-.08l.08-2.6.08-2.6v-.08l.08-2.68.08-2.68.08-2.68.08-2.68v-.32.31l.02-.08ZM75.69 212c-.37-.24-.69-.45-.94-.65.26.2.57.41.94.65Zm-.83-28.08c.06.09.14.18.26.29-.11-.11-.19-.2-.26-.29Zm127.16-44.49c-.41-.13-.81-.25-1.2-.37.39.11.79.23 1.2.36v.01Zm-82.71.57h-.04.04Zm4.99 1.16c-.03 0-.05-.02-.08-.03.03 0 .05.02.08.02v.01Zm17.95 123.14v-.01.01Zm.01-.03v-.02.02Zm119.45-71.1v.11l-.8 26.8c-.02.67-.06 1.34-.11 2.01-.48 4.63-1.41 8.75-2.86 12.56-.15.38-.3.76-.46 1.14-.07.17-.14.35-.22.52-.23.53-.47 1.06-.73 1.58-.04.08-.07.15-.11.23-.21.42-.43.84-.65 1.26-.14.26-.27.51-.41.77-.09.16-.19.33-.28.49-1.86 3.2-4.19 6.26-7.06 9.31-3.12 3.15-6.68 5.82-10.57 7.85-.17.09-.34.17-.51.26-.37.19-.75.38-1.13.55-.2.09-.4.18-.61.27a39.14 39.14 0 0 1-12.39 3.27c-.89-.06-2.04-.34-2.62.16h-.05L142.29 264v.03-.03h-.9c-4.69-.17-8.72-.94-12.16-2.08-5.47-1.94-10.35-5.15-14.32-9.31-3.03-3.34-5.28-6.74-6.93-10.06-2.72-5.68-4.18-12.17-3.97-19.07l.8-26.8c.67-22.74 19.04-41.78 40.75-42.24h.63c.23-.01.51-.02.85-.02l.76-.02c.65-.01 1.43-.03 2.33-.05l.8-.02c2.81-.06 6.57-.14 10.9-.24h.36c4.02-.09 8.51-.19 13.2-.29h.15c2.11-.05 4.25-.1 6.41-.14l2.54-.06 2.54-.06 1.94-.04c4.42-.1 8.75-.19 12.78-.28l1.19-.03 1.52-.03 2.32-.05h.36l2.74-.06 2.57-.06h.19c.76-.02 1.48-.04 2.17-.05h.49c1.32-.04 2.5-.06 3.53-.09h.55c.41-.02.8-.03 1.15-.04h.63c.28-.02.53-.03.76-.03h.23c.39-.01.7-.02.91-.02h.35c20.87-.47 37.61 16.38 38.27 37.88-.13.88-.44 1.96.01 2.53h.02Zm-135.25-51.24c.24.09.48.18.72.28-.24-.1-.49-.19-.73-.28h.01Zm71.42-3.53h-.03.03Zm.54.1h.03-.03Zm1.26.27c.02 0 .04 0 .06.01 0 0-.04 0-.06-.01Zm-80.6 1.2h-.02.02Zm8.6 2.44c.52.22 1.05.44 1.59.68-.54-.24-1.07-.47-1.59-.68Zm-47.14 45.03c-.95-.48-1.8-.93-2.54-1.34.74.42 1.59.86 2.54 1.34Zm-3.76 25.22c-.13-.07-.25-.14-.37-.22.12.07.24.14.37.22Z"/>
    <path fill="#FF462D" d="M223.43 152.75c21.72-.48 38.97 17.79 38.28 40.53-.27 8.93-.53 17.86-.8 26.8-.67 22.74-19.04 41.78-40.76 42.24-25.95.56-51.9 1.13-77.85 1.69-21.71.48-38.96-17.79-38.28-40.53.27-8.93.53-17.86.8-26.8.67-22.74 19.04-41.78 40.75-42.24 25.95-.56 51.9-1.13 77.85-1.69h.01Z"/>
    <path fill="#CC5200" d="m142.156 238.483-7.48.113a4.27 4.27 0 0 0-4.204 4.335l.029 1.93a4.27 4.27 0 0 0 4.334 4.204l7.479-.113a4.27 4.27 0 0 0 4.205-4.335l-.029-1.929a4.27 4.27 0 0 0-4.334-4.205Z"/>
    <path fill="#FF8419" d="m144.16 239.452-7.479.114a4.27 4.27 0 0 0-4.205 4.334l.03 1.93a4.27 4.27 0 0 0 4.334 4.205l7.479-.114a4.27 4.27 0 0 0 4.205-4.334l-.03-1.93a4.27 4.27 0 0 0-4.334-4.205Z"/>
    <path fill="#B77100" d="m161.859 238.184-7.48.113a4.27 4.27 0 0 0-4.204 4.335l.029 1.929a4.27 4.27 0 0 0 4.334 4.205l7.48-.113a4.27 4.27 0 0 0 4.204-4.335l-.029-1.93a4.27 4.27 0 0 0-4.334-4.204Z"/>
    <path fill="#FFBC31" d="m163.863 239.153-7.479.114a4.27 4.27 0 0 0-4.205 4.334l.03 1.93a4.27 4.27 0 0 0 4.334 4.205l7.479-.114a4.27 4.27 0 0 0 4.205-4.334l-.03-1.93a4.27 4.27 0 0 0-4.334-4.205Z"/>
    <path fill="#fff" d="M145.93 228.06c-6.37-.23-13.31-.76-17.94-4.81-5.48-4.79-5.74-12.67-5.63-19.67.09-6.12.2-12.24.29-18.36.05-2.89.14-5.96 1.83-8.4 2.95-4.27 9.29-5.09 14.74-4.97 34.11.79 60.02.78 95.87-1.8 6.13-.44 11.5 4.28 12.12 10.67.89 9.09 1.01 21.44-1.63 32.23-1.63 6.66-7.07 11.5-13.59 12.29-28.02 3.39-58.29 3.83-86.06 2.82Z"/>
    <path fill="#E3E3E3" d="M52.14 37.93C56.12 24.55 53.63 10.8 46.5 0c1.43.28 2.86.62 4.28 1.04 24.01 7.15 37.69 32.41 30.54 56.42C74.17 81.47 48.91 95.15 24.9 88 14.26 84.83 5.67 78.1 0 69.51c22.67 4.43 45.42-8.99 52.14-31.58Zm192.84 71.77s-34.94-.79-32.75-35.49c1.61-25.42 29.33-29.71 39.31-26.11 2.61-2.49 10.23-9.1 21.78-10.2 19.31-1.83 31.98 13.42 33.04 14.76 2.09-.4 13.67-2.44 22.45 4.78 11.65 9.58 12.31 30.5 1.04 40.73-8.93 8.11-22.58 3.94-23.41 5.68-8.85 18.34-54.86 19.39-61.46 5.85Z"/>
    <path fill="#fff" d="M236.27 91.2c-.92 0-1.6-.24-2.06-.73-.46-.48-.65-1.12-.58-1.89.07-.78.41-1.58 1.02-2.41l14.65-19.85h-13.44c-1.58 0-2.37-.75-2.37-2.25s.79-2.21 2.37-2.21h17.22c.92 0 1.6.24 2.06.73.46.49.66 1.11.6 1.87-.06.76-.4 1.57-1.04 2.43l-14.64 19.85h14.06c1.58 0 2.37.74 2.37 2.21s-.79 2.25-2.37 2.25h-17.85Zm23.76 0c-.72 0-1.26-.23-1.62-.69-.36-.46-.51-1-.46-1.64.05-.64.35-1.25.87-1.83l9.78-12.27h-8.82c-1.33 0-2-.65-2-1.96s.67-1.96 2-1.96h12.31c.83 0 1.45.22 1.85.67.4.44.58.98.54 1.6-.04.62-.33 1.23-.85 1.81l-9.9 12.36h9.32c1.33 0 2 .65 2 1.96s-.67 1.96-2 1.96h-13.02v-.01Zm19.72 0c-.72 0-1.26-.23-1.62-.69-.36-.46-.51-1-.46-1.64.05-.64.35-1.25.87-1.83l9.78-12.27h-8.82c-1.33 0-2-.65-2-1.96s.67-1.96 2-1.96h12.32c.83 0 1.45.22 1.85.67.4.44.58.98.54 1.6-.04.62-.33 1.23-.85 1.81l-9.9 12.36h9.32c1.33 0 2 .65 2 1.96s-.67 1.96-2 1.96h-13.03v-.01Zm20.97.21c-.94 0-1.7-.29-2.27-.87-.57-.58-.85-1.33-.85-2.25 0-.92.28-1.62.85-2.18.57-.57 1.32-.85 2.27-.85s1.73.28 2.27.85.81 1.3.81 2.18c0 .88-.27 1.66-.81 2.25-.54.58-1.3.87-2.27.87Zm10.31 0c-.94 0-1.7-.29-2.27-.87-.57-.58-.85-1.33-.85-2.25 0-.92.28-1.62.85-2.18.57-.57 1.32-.85 2.27-.85s1.73.28 2.27.85.81 1.3.81 2.18c0 .88-.27 1.66-.81 2.25-.54.58-1.3.87-2.27.87Zm10.32 0c-.94 0-1.7-.29-2.27-.87-.57-.58-.85-1.33-.85-2.25 0-.92.28-1.62.85-2.18.57-.57 1.32-.85 2.27-.85s1.73.28 2.27.85.81 1.3.81 2.18c0 .88-.27 1.66-.81 2.25-.54.58-1.3.87-2.27.87Z"/>
    <path fill="#E3E3E3" d="M241.01 106.4s7.72 17.54-1.93 34.93c0 0 19.43-8.34 26.08-33.33 0 0-11.87-10.05-24.15-1.6Zm-13.4 239.65c0 1.87-26.53 3.39-59.25 3.39s-59.25-1.52-59.25-3.39 26.53-3.39 59.25-3.39 59.25 1.52 59.25 3.39Z"/>
    <path fill="#FFBC31" d="M118.94 115.53c.56 3.61-1.92 6.99-5.53 7.55-3.61.56-6.99-1.92-7.55-5.53-.56-3.61 1.92-6.99 5.53-7.55 3.61-.56 6.99 1.92 7.55 5.53Zm9.82-1.4c-.92.22-1.85-.34-2.09-1.26-.85-3.29-2.81-6.19-5.55-8.21a1.74 1.74 0 0 1-.37-2.43 1.74 1.74 0 0 1 2.43-.37c3.37 2.48 5.81 6.09 6.85 10.14.24.93-.32 1.88-1.25 2.12h-.03.01v.01Zm-29.93-4.61c-.93.23-1.87-.34-2.1-1.27-.11-.46-.03-.94.21-1.34 2.72-4.37 7.18-7.42 12.26-8.3.94-.17 1.85.46 2.02 1.4.17.95-.44 1.89-1.41 2.02-4.09.75-7.72 3.18-9.92 6.72-.25.4-.64.67-1.07.77h.01Zm3.58 21.47c-.51.12-1.07 0-1.51-.34a18.236 18.236 0 0 1-6.48-11.25c-.15-.95.52-1.81 1.44-1.99.95-.15 1.84.5 1.99 1.44a14.73 14.73 0 0 0 5.24 9.1c.74.61.86 1.7.25 2.45-.25.3-.58.51-.94.59h.01Z"/>
    <path fill="#FFBC31" d="M130.37 146.89c-.73.18-1.5-.14-1.89-.78l-17.56-28.67c-.5-.82-.24-1.89.57-2.39.82-.51 1.89-.25 2.39.57l17.56 28.67c.5.82.24 1.9-.58 2.4-.15.09-.31.16-.49.2Z"/>
    <path fill="#FF462D" d="M189.92 214.7c-6.11 0-9.04-1.97-10.43-3.63-.62-.74-.53-1.85.22-2.47.74-.62 1.85-.53 2.47.22.74.89 2.73 2.37 7.73 2.37 4.2 0 6.12-1.15 6.99-2.13.66-.71 1.77-.75 2.48-.09.69.64.75 1.72.14 2.43-1.35 1.5-4.11 3.29-9.61 3.29l.01.01Zm-40.56-18.68c-.23 0-.47 0-.71-.02-4.02-.18-7.09-1.83-8.97-3.18a1.76 1.76 0 0 1-.4-2.45c.57-.78 1.66-.96 2.45-.4 1.49 1.07 3.92 2.38 7.08 2.51 3.84.16 6.79-1.51 8.2-2.51a1.75 1.75 0 0 1 2.45.4c.57.79.39 1.89-.4 2.45-1.7 1.21-5.14 3.19-9.7 3.19h-.02l.02.01Zm70.57-.86c-.23 0-.47 0-.71-.02-4.02-.18-7.09-1.83-8.97-3.18a1.76 1.76 0 0 1-.4-2.45c.57-.78 1.66-.96 2.45-.4 1.48 1.07 3.92 2.38 7.08 2.51 3.81.16 6.79-1.51 8.2-2.51.79-.57 1.89-.39 2.45.4.57.79.39 1.89-.4 2.45-1.7 1.21-5.14 3.19-9.7 3.19h-.02l.02.01Z"/>
    <path fill="#FF8419" d="M79.12 216.88c1.09 5.41 5.05 9.18 8.84 8.42 3.79-.76 5.98-5.77 4.89-11.19-1.09-5.41-5.05-9.18-8.84-8.42-3.79.76-5.98 5.77-4.89 11.19Z"/>
    <path fill="#CC5239" d="M82.22 277.7c-1.09 0-2.16-.5-2.85-1.45-17.79-24.44-6.98-53.48 2.46-62.9a3.53 3.53 0 0 1 4.98 0 3.53 3.53 0 0 1 0 4.98c-6.97 6.95-17.37 32.3-1.74 53.77 1.14 1.57.79 3.78-.78 4.92-.6.44-1.33.67-2.07.67v.01Z"/>
    <path fill="#CC5239" d="M91.37 269.28c-4.59-4.06-9.11-1.96-13.35 1.16-3.01 2.21-4.95 7.24-2.89 12.01s4.65 7.45 6.99 8.81c2.32 1.34 4.29.72 4.95-.74.68.35 1.36.6 1.99.66 2.85.29 3.27-1.33 3.14-2.25h-.02c1.85.56 3.46.5 4.22-.44 1.52-1.88-3.98-4.83-5.62-6.53-1.64-1.7-2.35-4.07-1.41-4.99.94-.92 2.36.49 3.85 2.03 1.49 1.54 4.3 1.07 4.87-.42.57-1.5-2.15-5.23-6.74-9.29h.02v-.01Z"/>
  </g>
  <defs>
    <clipPath id="a">
      <path fill="#fff" d="M0 0h337.94v349.44H0z"/>
    </clipPath>
  </defs>
</svg>
