<svg width="96" height="15" viewBox="0 0 96 15" fill="none" xmlns="http://www.w3.org/2000/svg">
<path d="M0 0.071167V11.1268H1.42718V6.9184L5.11415 11.1268H6.87429L3.06877 6.77583L6.73166 3.32838H4.97107L1.42809 6.65688V0.071167H0Z" fill="#FF462D"/>
<path d="M13.1308 3.32837H14.6057L11.0373 13.9559H9.53834L10.7988 10.2705H9.42024L6.7085 3.32837H8.18337L10.8474 10.1279L13.1308 3.32837Z" fill="#FF462D"/>
<path d="M22.2888 6.27644V11.1268H20.8616V6.49074C20.8616 4.898 20.1244 4.23194 19.0065 4.23194C17.8887 4.23194 17.1274 4.92161 17.1274 6.51435V11.1268H15.7002V3.32842H17.1274V4.92116C17.2958 4.40771 17.6247 3.96193 18.0658 3.6495C18.5068 3.33707 19.0366 3.17454 19.577 3.18586C21.3372 3.18586 22.2647 4.51707 22.2888 6.27644Z" fill="#FF462D"/>
<path d="M29.8268 0.0714111V5.20695C29.6489 4.6191 29.2873 4.10362 28.7951 3.73598C28.3029 3.36834 27.7059 3.16783 27.0915 3.16381C25.2123 3.16381 23.7852 4.82829 23.7852 7.20468C23.7852 9.60605 25.2123 11.2456 27.0915 11.2456C27.6784 11.2356 28.2496 11.0549 28.7354 10.7256C29.2212 10.3963 29.6005 9.93263 29.8268 9.39129V11.0794H31.254V0.0714111H29.8268ZM27.5434 10.2235C26.0686 10.2235 25.2123 9.05849 25.2123 7.22693C25.2123 5.39537 26.0449 4.23033 27.5434 4.23033C29.0419 4.23033 29.8745 5.39537 29.8745 7.22693C29.8745 9.05849 29.0183 10.2235 27.5439 10.2235H27.5434Z" fill="#FF462D"/>
<path d="M34.7034 5.01667C34.8477 4.45828 35.1844 3.96863 35.6542 3.63381C36.124 3.29899 36.6968 3.14044 37.272 3.18602V4.58897H36.8428C35.4156 4.58897 34.7261 5.04073 34.7261 6.44323V11.127H33.2998V3.32858H34.727V5.01667H34.7034Z" fill="#FF462D"/>
<path d="M43.834 3.32837H45.3089L41.7409 13.9559H40.2419L41.5024 10.2705H40.1239L37.4121 3.32837H38.887L41.551 10.1279L43.834 3.32837Z" fill="#FF462D"/>
<path d="M47.8329 0.0714111H46.4058V11.103H47.8329V0.0714111Z" fill="#FF462D"/>
<path d="M53.9961 11.056H55.1853V10.1525C54.781 10.4379 54.4005 10.7232 54.0438 11.0083C54.0429 11.0207 54.0376 11.0323 54.0289 11.0411C54.0201 11.0498 54.0085 11.0551 53.9961 11.056Z" fill="#29707A"/>
<path d="M57.4666 10.1759C56.9227 10.1931 56.3936 9.99767 55.9917 9.63103C55.825 9.72592 55.6587 9.84488 55.5161 9.94022C55.7888 10.3265 56.148 10.6438 56.5651 10.8667C56.9822 11.0897 57.4457 11.2121 57.9185 11.2242C59.7977 11.2242 61.2008 9.58381 61.2248 7.20605C60.7252 7.37268 60.2256 7.56247 59.75 7.75089C59.5833 9.24692 58.7747 10.1759 57.4666 10.1759Z" fill="#29707A"/>
<path d="M55.1357 7.15642C55.1357 5.32577 55.9919 4.13712 57.4667 4.13712C58.8462 4.13712 59.6788 5.18139 59.7738 6.82362C60.2257 6.65699 60.7013 6.46721 61.1773 6.32419C60.8921 4.39819 59.5839 3.11465 57.9423 3.11465C57.3279 3.11867 56.7309 3.31917 56.2387 3.68682C55.7465 4.05446 55.3849 4.56993 55.207 5.15778V0H53.7798V10.1521C54.327 9.71555 54.8987 9.31065 55.4922 8.9394C55.237 8.38066 55.1149 7.77032 55.1357 7.15642Z" fill="#29707A"/>
<path d="M62.7231 11.0555H64.1503V6.3241C63.6748 6.44305 63.1992 6.58562 62.7231 6.70457V11.0555Z" fill="#29707A"/>
<path d="M66.2661 4.51754H66.6945V3.11458C66.1224 3.06981 65.5529 3.22914 65.0872 3.56429C64.6215 3.89944 64.2897 4.38872 64.1508 4.94523V3.28121H62.7231V5.84875C63.2464 5.70619 63.7679 5.56362 64.317 5.4206C64.6023 4.75499 65.2446 4.51754 66.2661 4.51754Z" fill="#29707A"/>
<path d="M69.3338 0H67.7876V1.926H69.3338V0Z" fill="#29707A"/>
<path d="M69.2617 3.28076H67.8345V4.70732C68.31 4.63604 68.7861 4.56476 69.2617 4.51709V3.28076Z" fill="#29707A"/>
<path d="M67.8345 11.0556H69.2617V5.34937C68.7861 5.42065 68.31 5.46832 67.8345 5.5396V11.0556Z" fill="#29707A"/>
<path d="M74.5208 4.15914H74.9251C75.4007 4.15914 75.8526 4.15914 76.3046 4.18275C76.0384 3.83956 75.6952 3.56388 75.3026 3.37803C74.9099 3.19218 74.4791 3.10141 74.0448 3.11306C73.5857 3.11295 73.1326 3.21788 72.7202 3.41982C72.3079 3.62176 71.9473 3.91535 71.666 4.2781C72.5463 4.20681 73.4498 4.18321 74.3301 4.15914H74.5208Z" fill="#29707A"/>
<path d="M76.778 5.04033C76.6118 5.04033 76.4451 5.01672 76.2784 5.01672C76.6876 5.65288 76.8873 6.40118 76.8493 7.15657C76.8493 8.98722 75.9931 10.1759 74.5182 10.1759C73.0434 10.1759 72.2112 8.98722 72.2112 7.15657C72.1769 6.41902 72.3679 5.6885 72.759 5.06213C72.2139 5.08574 71.6888 5.13341 71.1415 5.15702C70.8854 5.79172 70.7561 6.47039 70.7609 7.15475C70.7609 9.55612 72.1881 11.2201 74.0672 11.2201C74.6541 11.2102 75.2254 11.0295 75.7111 10.7002C76.1969 10.3709 76.5762 9.90722 76.8026 9.36588V11.0776H78.2297V5.13568C77.7301 5.09028 77.2545 5.0644 76.7789 5.04079L76.778 5.04033Z" fill="#29707A"/>
<path d="M78.2067 0H76.7795L76.7559 4.18434L78.183 4.25563V0H78.2067Z" fill="#29707A"/>
<path d="M85.8404 7.06102C85.8404 8.89167 84.9842 9.96182 83.5093 9.96182C82.0344 9.96182 81.2023 8.89212 81.2023 7.06102C81.1873 6.50837 81.2843 5.9584 81.4875 5.44422C81.0119 5.37293 80.5359 5.32526 80.0603 5.27759C79.8534 5.84919 79.7487 6.45271 79.751 7.06056C79.751 9.46193 81.1782 11.0074 83.0573 11.0074C83.6391 11.0024 84.207 10.829 84.6924 10.5084C85.1778 10.1877 85.56 9.73342 85.7927 9.20041V11.1264C85.7927 12.4104 84.8411 13.0283 83.6519 13.0283C82.6072 13.0283 81.7015 12.5053 81.5825 11.4846H80.1316C80.2983 13.1963 81.8441 14.0762 83.6519 14.0762C85.4597 14.0762 87.1949 13.1727 87.1949 11.1042V6.63332C86.7193 6.49076 86.2433 6.3718 85.7677 6.25284C85.8165 6.51946 85.8409 6.78998 85.8404 7.06102Z" fill="#29707A"/>
<path d="M83.51 4.15912C83.9177 4.13752 84.3227 4.23674 84.6742 4.44432C85.0257 4.6519 85.3081 4.95861 85.4859 5.32597C86.0805 5.46854 86.6515 5.61111 87.2224 5.75413V3.25696H85.7952V5.11258C85.6147 4.52993 85.2511 4.02094 84.7584 3.6611C84.2657 3.30125 83.6701 3.1097 83.0599 3.11485C82.5533 3.11268 82.054 3.23518 81.6061 3.47154C81.1581 3.7079 80.7752 4.05085 80.4912 4.47013C81.0145 4.51765 81.5377 4.58893 82.061 4.68398C82.2539 4.50227 82.482 4.36197 82.7312 4.2717C82.9804 4.18144 83.2454 4.14312 83.51 4.15912Z" fill="#29707A"/>
<path d="M92.3593 10.1757C91.0748 10.1757 90.2186 9.27215 90.0995 7.60813C89.624 7.41789 89.1479 7.25171 88.6724 7.08508V7.15637C88.6724 9.51006 90.0282 11.2218 92.3593 11.2218C92.8463 11.2484 93.3337 11.1758 93.7916 11.0082C94.2496 10.8406 94.6687 10.5816 95.0234 10.247C94.6904 10.009 94.3334 9.77158 93.9787 9.53367C93.773 9.75361 93.5211 9.92526 93.2411 10.0363C92.9611 10.1473 92.6599 10.1949 92.3593 10.1757Z" fill="#29707A"/>
<path d="M95.9994 7.03709C95.9994 4.63573 94.5245 3.09021 92.3601 3.09021C90.3861 3.09021 89.0779 4.35014 88.7686 6.20486C89.9473 6.58813 91.0995 7.04876 92.2175 7.58375H95.9994C95.9875 7.40172 95.9875 7.21912 95.9994 7.03709ZM90.1008 6.51405C90.2675 4.97035 91.0524 4.16036 92.3365 4.16036C93.6206 4.16036 94.4537 5.11155 94.5486 6.51405H90.1008Z" fill="#29707A"/>
<path d="M95.8082 8.77319H94.3574C94.7505 9.00748 95.1315 9.26146 95.4989 9.53415C95.6444 9.29985 95.749 9.04253 95.8082 8.77319Z" fill="#29707A"/>
</svg>
