<svg width="137" height="20" viewBox="0 0 137 20" fill="none" xmlns="http://www.w3.org/2000/svg">
<path d="M0 0.101318V15.8094H2.02777V9.82998L7.26628 15.8094H9.76711L4.36016 9.62742L9.56446 4.72922H7.06299L2.02906 9.45841V0.101318H0Z" fill="#FF462D"/>
<path d="M18.6543 4.729H20.7498L15.6797 19.8287H13.55L15.3409 14.5925H13.3822L9.5293 4.729H11.6248L15.41 14.3899L18.6543 4.729Z" fill="#FF462D"/>
<path d="M31.6659 8.91745V15.809H29.6381V9.22194C29.6381 6.95895 28.5906 6.01259 27.0024 6.01259C25.4141 6.01259 24.3325 6.99249 24.3325 9.25548V15.809H22.3047V4.72886H24.3325V6.99185C24.5717 6.26234 25.0391 5.62895 25.6657 5.18505C26.2924 4.74115 27.0451 4.51022 27.813 4.5263C30.3138 4.5263 31.6316 6.41771 31.6659 8.91745V8.91745Z" fill="#FF462D"/>
<path d="M42.3781 0.101318V7.39798C42.1252 6.56275 41.6115 5.83035 40.9122 5.308C40.2129 4.78565 39.3646 4.50076 38.4916 4.49505C35.8217 4.49505 33.7939 6.85997 33.7939 10.2364C33.7939 13.6483 35.8217 15.9777 38.4916 15.9777C39.3255 15.9636 40.1372 15.7069 40.8274 15.239C41.5176 14.7711 42.0565 14.1123 42.3781 13.3432V15.7416H44.4059V0.101318H42.3781ZM39.1338 14.5256C37.0382 14.5256 35.8217 12.8703 35.8217 10.268C35.8217 7.66569 37.0047 6.01038 39.1338 6.01038C41.2629 6.01038 42.4458 7.66569 42.4458 10.268C42.4458 12.8703 41.2293 14.5256 39.1344 14.5256H39.1338Z" fill="#FF462D"/>
<path d="M49.3067 7.12767C49.5118 6.3343 49.9902 5.6386 50.6577 5.16288C51.3252 4.68717 52.1391 4.46189 52.9563 4.52665V6.51999H52.3464C50.3187 6.51999 49.339 7.16186 49.339 9.15455V15.8093H47.3125V4.72921H49.3403V7.12767H49.3067Z" fill="#FF462D"/>
<path d="M62.2835 4.729H64.379L59.3096 19.8287H57.1799L58.9708 14.5925H57.0121L53.1592 4.729H55.2547L59.0398 14.3899L62.2835 4.729Z" fill="#FF462D"/>
<path d="M67.9614 0.101318H65.9336V15.7752H67.9614V0.101318Z" fill="#FF462D"/>
<path d="M76.7148 15.7083H78.4044V14.4246C77.83 14.8301 77.2894 15.2354 76.7826 15.6406C76.7814 15.6581 76.7739 15.6747 76.7614 15.6871C76.749 15.6996 76.7324 15.7071 76.7148 15.7083V15.7083Z" fill="#29707A"/>
<path d="M81.6492 14.4583C80.8765 14.4829 80.1247 14.2051 79.5536 13.6842C79.3168 13.819 79.0806 13.9881 78.8779 14.1235C79.2654 14.6724 79.7758 15.1232 80.3684 15.4399C80.961 15.7567 81.6195 15.9306 82.2913 15.9479C84.9612 15.9479 86.9548 13.6171 86.989 10.2388C86.2791 10.4755 85.5692 10.7452 84.8935 11.0129C84.6566 13.1385 83.5079 14.4583 81.6492 14.4583Z" fill="#29707A"/>
<path d="M78.3366 10.168C78.3366 7.56695 79.5531 5.8781 81.6487 5.8781C83.6087 5.8781 84.7916 7.36181 84.9265 9.69512C85.5687 9.45837 86.2444 9.18872 86.9207 8.98552C86.5154 6.24903 84.6568 4.42535 82.3244 4.42535C81.4514 4.43106 80.6031 4.71594 79.9038 5.23829C79.2045 5.76065 78.6908 6.49304 78.4379 7.32827V0H76.4102V14.4243C77.1876 13.804 78 13.2287 78.8432 12.7013C78.4805 11.9074 78.3071 11.0402 78.3366 10.168Z" fill="#29707A"/>
<path d="M89.1172 15.708H91.145V8.98547C90.4692 9.15449 89.7935 9.35705 89.1172 9.52606V15.708Z" fill="#29707A"/>
<path d="M94.1511 6.41853H94.7597V4.42519C93.9469 4.36157 93.1378 4.58796 92.4761 5.06415C91.8145 5.54034 91.343 6.23551 91.1456 7.02621V7.02621V4.66194H89.1172V8.30995C89.8607 8.10739 90.6016 7.90483 91.3818 7.70163C91.7871 6.75592 92.6997 6.41853 94.1511 6.41853Z" fill="#29707A"/>
<path d="M98.5133 0H96.3164V2.73649H98.5133V0Z" fill="#29707A"/>
<path d="M98.4106 4.66138H96.3828V6.68826C97.0585 6.58698 97.7349 6.4857 98.4106 6.41797V4.66138Z" fill="#29707A"/>
<path d="M96.3828 15.708H98.4106V7.60046C97.7349 7.70174 97.0585 7.76948 96.3828 7.87076V15.708Z" fill="#29707A"/>
<path d="M105.88 5.9091H106.455C107.13 5.9091 107.773 5.9091 108.415 5.94264C108.037 5.45504 107.549 5.06333 106.991 4.79928C106.433 4.53523 105.821 4.40625 105.204 4.4228C104.552 4.42265 103.908 4.57174 103.322 4.85866C102.736 5.14558 102.224 5.56271 101.824 6.07811C103.075 5.97683 104.359 5.94329 105.609 5.9091H105.88Z" fill="#29707A"/>
<path d="M109.089 7.16123C108.853 7.16123 108.616 7.12769 108.38 7.12769C108.961 8.03155 109.245 9.09475 109.191 10.168C109.191 12.769 107.974 14.4579 105.879 14.4579C103.783 14.4579 102.601 12.769 102.601 10.168C102.552 9.1201 102.824 8.08216 103.379 7.1922C102.605 7.22574 101.859 7.29347 101.081 7.32702C100.717 8.22881 100.533 9.19308 100.54 10.1654C100.54 13.5773 102.568 15.9416 105.238 15.9416C106.072 15.9275 106.883 15.6708 107.574 15.2029C108.264 14.735 108.803 14.0762 109.124 13.307V15.739H111.152V7.2967C110.442 7.23219 109.767 7.19542 109.091 7.16188L109.089 7.16123Z" fill="#29707A"/>
<path d="M111.118 0H109.09L109.057 5.94519L111.084 6.04647V0H111.118Z" fill="#29707A"/>
<path d="M121.964 10.0327C121.964 12.6337 120.748 14.1542 118.652 14.1542C116.557 14.1542 115.375 12.6344 115.375 10.0327C115.353 9.24749 115.491 8.46609 115.78 7.73553C115.104 7.63425 114.428 7.56651 113.752 7.49878C113.458 8.31092 113.309 9.16841 113.313 10.0321C113.313 13.444 115.34 15.6399 118.01 15.6399C118.837 15.6326 119.644 15.3863 120.333 14.9307C121.023 14.4751 121.566 13.8297 121.897 13.0724V15.8089C121.897 17.6332 120.545 18.5112 118.855 18.5112C117.371 18.5112 116.084 17.768 115.915 16.3179H113.853C114.09 18.7499 116.286 20.0001 118.855 20.0001C121.424 20.0001 123.889 18.7163 123.889 15.7773V9.42503C123.213 9.22247 122.537 9.05346 121.861 8.88444C121.931 9.26325 121.965 9.64761 121.964 10.0327Z" fill="#29707A"/>
<path d="M118.653 5.90928C119.233 5.87859 119.808 6.01956 120.308 6.31449C120.807 6.60943 121.208 7.04521 121.461 7.56717C122.306 7.76973 123.117 7.97229 123.928 8.17549V4.62747H121.9V7.26397C121.644 6.43613 121.127 5.71296 120.427 5.20168C119.727 4.6904 118.881 4.41824 118.014 4.42556C117.294 4.42247 116.585 4.59653 115.948 4.93235C115.312 5.26818 114.768 5.75545 114.364 6.35116C115.108 6.41868 115.851 6.51997 116.595 6.655C116.869 6.39684 117.193 6.19749 117.547 6.06924C117.901 5.94099 118.278 5.88655 118.653 5.90928Z" fill="#29707A"/>
<path d="M131.226 14.4578C129.401 14.4578 128.184 13.1741 128.015 10.8098C127.339 10.5395 126.663 10.3034 125.987 10.0667V10.1679C125.987 13.5121 127.914 15.9441 131.226 15.9441C131.918 15.982 132.61 15.8788 133.261 15.6407C133.912 15.4026 134.507 15.0346 135.011 14.5591C134.538 14.2211 134.031 13.8837 133.527 13.5456C133.234 13.8581 132.876 14.102 132.479 14.2597C132.081 14.4175 131.653 14.4851 131.226 14.4578V14.4578Z" fill="#29707A"/>
<path d="M136.398 9.99867C136.398 6.58677 134.302 4.39087 131.227 4.39087C128.422 4.39087 126.564 6.18101 126.124 8.81621C127.799 9.36078 129.436 10.0153 131.024 10.7754H136.398C136.381 10.5167 136.381 10.2573 136.398 9.99867V9.99867ZM128.017 9.25552C128.254 7.0622 129.369 5.91136 131.193 5.91136C133.018 5.91136 134.202 7.26283 134.336 9.25552H128.017Z" fill="#29707A"/>
<path d="M136.126 12.4653H134.064C134.623 12.7982 135.164 13.1591 135.686 13.5465C135.893 13.2136 136.042 12.848 136.126 12.4653V12.4653Z" fill="#29707A"/>
</svg>
